<svg width="1112" height="881" viewBox="0 0 1112 881" fill="none" xmlns="http://www.w3.org/2000/svg">
<path d="M579.86 119.18H424.93V348.37H579.86V119.18Z" fill="#3EC1F3"/>
<path d="M379.54 119.18H424.93V348.37H323.17V175.55C323.17 160.6 329.109 146.262 339.68 135.69C350.252 125.119 364.59 119.18 379.54 119.18Z" fill="#3EC1F3"/>
<path d="M371.3 303.45C383.721 303.45 393.79 292.445 393.79 278.87C393.79 265.295 383.721 254.29 371.3 254.29C358.879 254.29 348.81 265.295 348.81 278.87C348.81 292.445 358.879 303.45 371.3 303.45Z" fill="#F4E6D8"/>
<path d="M402.93 279.4H339.67C339.668 285.683 341.538 291.824 345.041 297.039C348.545 302.254 353.523 306.307 359.34 308.68V316.68H383.26V308.68C389.077 306.307 394.055 302.254 397.559 297.039C401.062 291.824 402.932 285.683 402.93 279.4Z" fill="#4756DF"/>
<path d="M322 218L423 177" stroke="#4756DF" stroke-width="4" stroke-miterlimit="10" stroke-linecap="round"/>
<path d="M423.1 119.18V348.37" stroke="#4756DF" stroke-width="4" stroke-miterlimit="10"/>
<path d="M992.4 720.57V632.57L939.23 578.48H789.8L736.63 632.57V714.16H550.53V680.23C490.94 673.81 509.27 629.81 476.27 629.81H417.6C413.324 629.794 409.134 631.009 405.53 633.31L322.7 582.12H237.45L130.65 648.12H130.88V731.22L59.1499 775.55V851.64H1045.57V774.64L992.4 720.57Z" fill="#F5EBDD"/>
<path d="M1081.33 851.66H1023.57C1023.57 835.72 1036.5 819.58 1052.45 819.58C1068.4 819.58 1081.33 835.72 1081.33 851.66Z" fill="#FFB7D5"/>
<path d="M1111.4 851.66H1068.49C1068.49 839.82 1078.1 827.83 1089.94 827.83C1101.78 827.83 1111.4 839.82 1111.4 851.66Z" fill="#FFB7D5"/>
<path d="M268.47 466.66C296.47 457.99 332.47 445.53 442.02 535.12C551.57 624.71 593.02 566.12 581.81 552.58C572.81 541.68 522.55 571.09 559.96 610.74C595.51 648.44 699.7 612.38 728.27 589.3C768.93 556.46 827.14 530.63 878.45 528.77" stroke="#FFB7D5" stroke-width="4" stroke-linecap="round" stroke-linejoin="round" stroke-dasharray="12 12"/>
<path d="M344.26 648.14L237.45 582.14" stroke="#FFB7D5" stroke-width="4" stroke-linecap="round" stroke-linejoin="round"/>
<path d="M131.88 648.14H344.49V850.66" stroke="#FFB7D5" stroke-width="4" stroke-linecap="round" stroke-linejoin="round"/>
<path d="M128.13 851.04L129.13 732.22" stroke="#FFB7D5" stroke-width="4" stroke-linecap="round" stroke-linejoin="round"/>
<path d="M60.1499 775.57H127.9" stroke="#FFB7D5" stroke-width="4" stroke-linecap="round" stroke-linejoin="round"/>
<path d="M129.28 761.36H342.88" stroke="#FFB7D5" stroke-width="4" stroke-linecap="round" stroke-linejoin="round"/>
<path d="M734.33 791.62H885.6" stroke="#FFB7D5" stroke-width="4" stroke-linecap="round" stroke-linejoin="round"/>
<path d="M344.26 648.14H394.1" stroke="#FFB7D5" stroke-width="4" stroke-linecap="round" stroke-linejoin="round"/>
<path d="M737.63 632.56H886.06V850.66" stroke="#FFB7D5" stroke-width="4" stroke-linecap="round" stroke-linejoin="round"/>
<path d="M886.06 849.66V632.56H990.4" stroke="#FFB7D5" stroke-width="4" stroke-linecap="round" stroke-linejoin="round"/>
<path d="M492.77 682.06H549.53" stroke="#FFB7D5" stroke-width="4" stroke-linecap="round" stroke-linejoin="round"/>
<path d="M939.23 850.66V774.66H1044" stroke="#FFB7D5" stroke-width="4" stroke-linecap="round" stroke-linejoin="round"/>
<path d="M938.65 579.06L886.06 632.56" stroke="#FFB7D5" stroke-width="4" stroke-linecap="round" stroke-linejoin="round"/>
<path d="M886.06 720.57L939.23 774.66" stroke="#FFB7D5" stroke-width="4" stroke-linecap="round" stroke-linejoin="round"/>
<path d="M990.86 718.28H886.52" stroke="#FFB7D5" stroke-width="4" stroke-linecap="round" stroke-linejoin="round"/>
<path d="M418.72 631.64C385.72 631.64 404.05 675.64 344.46 682.06H493C433.38 675.65 451.72 631.64 418.72 631.64Z" stroke="#FFB7D5" stroke-width="4" stroke-linecap="round" stroke-linejoin="round"/>
<path d="M344.46 849.66V682.07H492.97V850.66" stroke="#FFB7D5" stroke-width="4" stroke-linecap="round" stroke-linejoin="round"/>
<path d="M492.77 849.66V730.65H734.34V850.66" stroke="#FFB7D5" stroke-width="4" stroke-linecap="round" stroke-linejoin="round"/>
<path d="M493.2 728.41L549 712.31" stroke="#FFB7D5" stroke-width="4" stroke-linecap="round" stroke-linejoin="round"/>
<path d="M734.34 715.15V730.65H492.77" stroke="#FFB7D5" stroke-width="4" stroke-linecap="round" stroke-linejoin="round"/>
<path d="M540.76 758.16H541C545.339 758.16 549.5 759.884 552.568 762.952C555.636 766.02 557.36 770.181 557.36 774.52V851.67H524.36V774.52C524.36 772.368 524.784 770.238 525.609 768.25C526.434 766.263 527.642 764.457 529.166 762.938C530.689 761.418 532.497 760.214 534.487 759.394C536.476 758.574 538.608 758.155 540.76 758.16Z" fill="#FFB7D5"/>
<path d="M688.36 758.16H688.64C692.979 758.16 697.14 759.884 700.208 762.952C703.276 766.02 705 770.181 705 774.52V851.67H672V774.52C672 770.181 673.724 766.02 676.792 762.952C679.86 759.884 684.021 758.16 688.36 758.16Z" fill="#FFB7D5"/>
<path d="M614.56 758.16H614.84C619.179 758.16 623.34 759.884 626.408 762.952C629.476 766.02 631.2 770.181 631.2 774.52V851.67H598.2V774.52C598.2 770.181 599.924 766.02 602.992 762.952C606.06 759.884 610.221 758.16 614.56 758.16Z" fill="#FFB7D5"/>
<path d="M994.1 795.74H994.38C998.719 795.74 1002.88 797.464 1005.95 800.532C1009.02 803.6 1010.74 807.761 1010.74 812.1V851.66H977.74V812.1C977.74 807.761 979.464 803.6 982.532 800.532C985.6 797.464 989.761 795.74 994.1 795.74Z" fill="#FFB7D5"/>
<path d="M174.75 795.74H175C179.339 795.74 183.5 797.464 186.568 800.532C189.636 803.6 191.36 807.761 191.36 812.1V851.66H158.36V812.1C158.36 809.952 158.783 807.824 159.605 805.839C160.427 803.854 161.632 802.051 163.152 800.532C164.671 799.013 166.474 797.808 168.459 796.985C170.444 796.163 172.571 795.74 174.72 795.74H174.75Z" fill="#FFB7D5"/>
<path d="M300.34 795.74H300.62C302.77 795.737 304.9 796.159 306.887 796.98C308.874 797.801 310.68 799.005 312.201 800.525C313.722 802.044 314.929 803.848 315.753 805.835C316.576 807.821 317 809.95 317 812.1V851.66H284V812.1C284 807.765 285.721 803.606 288.785 800.539C291.848 797.471 296.005 795.745 300.34 795.74Z" fill="#FFB7D5"/>
<path d="M237.54 795.74H237.82C242.159 795.74 246.32 797.464 249.388 800.532C252.456 803.6 254.18 807.761 254.18 812.1V851.66H221.18V812.1C221.18 807.761 222.904 803.6 225.972 800.532C229.04 797.464 233.201 795.74 237.54 795.74Z" fill="#FFB7D5"/>
<path d="M191.38 677.48H158.38V733.4H191.38V677.48Z" fill="#FFB7D5"/>
<path d="M316.98 677.48H283.98V733.4H316.98V677.48Z" fill="#FFB7D5"/>
<path d="M254.18 677.48H221.18V733.4H254.18V677.48Z" fill="#FFB7D5"/>
<path d="M406.33 710.48H378.91V751.73H406.33V710.48Z" fill="#FFB7D5"/>
<path d="M458.51 710.48H431.09V751.73H458.51V710.48Z" fill="#FFB7D5"/>
<path d="M406.33 782.91H378.91V824.16H406.33V782.91Z" fill="#FFB7D5"/>
<path d="M458.51 782.91H431.09V824.16H458.51V782.91Z" fill="#FFB7D5"/>
<path d="M797.79 655.48H770.37V696.73H797.79V655.48Z" fill="#FFB7D5"/>
<path d="M849.97 655.48H822.55V696.73H849.97V655.48Z" fill="#FFB7D5"/>
<path d="M955.4 655.48H927.98V696.73H955.4V655.48Z" fill="#FFB7D5"/>
<path d="M797.79 727.9H770.37V769.15H797.79V727.9Z" fill="#FFB7D5"/>
<path d="M849.97 727.9H822.55V769.15H849.97V727.9Z" fill="#FFB7D5"/>
<path d="M273.67 414.83C273.67 435.46 251.67 459.29 242.95 459.29C234.23 459.29 212.24 435.46 212.24 414.83C212.385 406.78 215.685 399.109 221.43 393.467C227.174 387.825 234.904 384.664 242.955 384.664C251.006 384.664 258.736 387.825 264.48 393.467C270.225 399.109 273.525 406.78 273.67 414.83Z" fill="#FFB7D5"/>
<path d="M242.95 424.46C248.269 424.46 252.58 420.149 252.58 414.83C252.58 409.512 248.269 405.2 242.95 405.2C237.632 405.2 233.32 409.512 233.32 414.83C233.32 420.149 237.632 424.46 242.95 424.46Z" fill="white"/>
<path d="M944.73 482.58C944.73 503.21 922.73 527.04 914.02 527.04C905.31 527.04 883.31 503.21 883.31 482.58C883.31 474.435 886.546 466.624 892.305 460.865C898.064 455.106 905.875 451.87 914.02 451.87C922.165 451.87 929.976 455.106 935.735 460.865C941.494 466.624 944.73 474.435 944.73 482.58Z" fill="#FFB7D5"/>
<path d="M914.02 492.21C919.339 492.21 923.65 487.899 923.65 482.58C923.65 477.262 919.339 472.95 914.02 472.95C908.702 472.95 904.39 477.262 904.39 482.58C904.39 487.899 908.702 492.21 914.02 492.21Z" fill="white"/>
<path d="M30.5399 851.66H88.2999C88.2999 835.72 75.3699 819.58 59.4199 819.58C43.4699 819.58 30.5399 835.72 30.5399 851.66Z" fill="#FFB7D5"/>
<path d="M0.469971 851.66H43.38C43.38 839.82 33.77 827.83 21.93 827.83C10.09 827.83 0.469971 839.82 0.469971 851.66Z" fill="#FFB7D5"/>
<path d="M523.79 284C452.62 327.51 427.87 448.71 412.79 492.93C396.48 540.75 360.56 539.66 318.88 553.58C277.2 567.5 278.75 597.85 278.75 597.85C269.008 604.487 259.699 611.738 250.88 619.56L303.65 687C316.1 678.41 334.58 667.64 359.93 652.33C412.29 620.7 459.16 591 489.41 558C519.66 525 599.16 380.3 599.16 380.3L523.79 284Z" fill="#4856DF"/>
<path d="M303.65 687L250.87 619.57C227.27 640.57 213.13 660.57 206.02 672.21L280.43 767.27C290.91 748.27 282.58 721.53 283.43 709.86C284 702.83 290.38 696.16 303.65 687Z" fill="#30242A"/>
<path d="M200.24 682.69L273.4 776.16C276.216 773.615 278.583 770.613 280.4 767.28L206 672.22C203.893 675.604 201.97 679.099 200.24 682.69Z" fill="#3EC1F3"/>
<path d="M276.59 691L290.76 698.89" stroke="white" stroke-width="4" stroke-linecap="round" stroke-linejoin="round"/>
<path d="M270.28 705.26L284.48 708.48" stroke="white" stroke-width="4" stroke-linecap="round" stroke-linejoin="round"/>
<path d="M295.62 624.72L270.34 644.48" stroke="#3EC1F3" stroke-width="4" stroke-miterlimit="10" stroke-linecap="round"/>
<path d="M282.82 608.35L257.54 628.11" stroke="#3EC1F3" stroke-width="4" stroke-miterlimit="10" stroke-linecap="round"/>
<path d="M308.42 641.09L283.14 660.85" stroke="#3EC1F3" stroke-width="4" stroke-miterlimit="10" stroke-linecap="round"/>
<path d="M321.22 657.46L295.94 677.22" stroke="#3EC1F3" stroke-width="4" stroke-miterlimit="10" stroke-linecap="round"/>
<path d="M276.46 598.72L331.93 669.68" stroke="#3EC1F3" stroke-width="4" stroke-miterlimit="10" stroke-linecap="round"/>
<path d="M545.82 472.48C533.77 453.48 521.98 432.48 513.02 410.81" stroke="#30242A" stroke-width="4" stroke-linecap="round" stroke-linejoin="round"/>
<path d="M565.65 17.42C570.46 17.42 574.36 13.5204 574.36 8.71001C574.36 3.89961 570.46 0 565.65 0C560.84 0 556.94 3.89961 556.94 8.71001C556.94 13.5204 560.84 17.42 565.65 17.42Z" fill="#4756DF"/>
<path d="M593.3 135.68L592.7 125.56C604.35 127.02 612.98 125.29 619.15 122.13L592.7 100.84C592.7 100.84 601.86 97.18 596.36 77.92L625.8 67.22C624.25 63.22 623.22 53.58 620.25 43.22L602.72 50.85C598.627 58.7035 592.758 65.4936 585.58 70.68C582.614 67.6129 579.302 64.9014 575.71 62.6C575.23 62.29 574.71 62 574.23 61.71H574.18C573.69 61.43 573.18 61.16 572.69 60.9H572.61C572.11 60.65 571.61 60.4 571.1 60.18L571 60C570.51 59.77 570 59.57 569.49 59.37H569.35C568.84 59.19 568.35 59.02 567.83 58.86H567.66C567.16 58.71 566.66 58.58 566.14 58.47H565.96C565.45 58.36 564.96 58.28 564.44 58.22H564.24C563.74 58.17 563.24 58.14 562.73 58.13C558.36 58.07 554.03 59.85 550.42 64.9C548.265 67.8278 547.095 71.3645 547.08 75C547.15 85.75 557.15 96 566.08 99C559.02 113.89 536.21 123.18 527.46 126.27C527.74 129.68 528.01 132.85 528.25 135.68H593.3Z" fill="#EAA58B"/>
<path d="M771.24 197.1C767.1 197.1 765.1 193.74 766.77 189.6L780.77 155.03L780.66 154.93L780.9 154.7C784.77 151.064 788.372 147.154 791.68 143C798 134.95 799.9 129.1 797.68 126.71C797.043 126.068 796.2 125.671 795.3 125.59C794.384 125.479 793.456 125.533 792.56 125.75C785.42 127.31 773.19 137.04 759.56 153.09C743.07 172.48 711 210.85 711 210.85C707.66 208.3 702.81 203.98 697 198.77L650.86 258.09C660.747 265.786 671.303 272.583 682.4 278.4C684.493 271.919 688.489 266.219 693.868 262.04C699.246 257.862 705.758 255.4 712.555 254.974C719.352 254.547 726.12 256.177 731.978 259.651C737.836 263.125 742.513 268.281 745.4 274.45C773.2 253.68 795.16 216.62 805.45 197.1H771.24Z" fill="#EAA58B"/>
<path d="M618.37 148.51H604.27C631.16 164.71 619.27 195.27 619.27 195.27C619.27 195.27 656 220.94 631.2 252.11C633.02 250.195 634.562 248.034 635.78 245.69C635.78 245.69 641.7 251.13 650.78 258.09L696.92 198.77C675.49 179.65 640.7 148.51 618.37 148.51Z" fill="#FFB7D5"/>
<path d="M477.19 198C477.19 198 450.19 220.51 468.44 250.65L478.05 196.65L477.19 198Z" fill="#FF7235"/>
<path d="M528.21 135.68V136.01L529.37 135.68H528.21Z" fill="#FF7235"/>
<path d="M566 99C557.11 96 547.11 85.78 547 75L524.09 85C524.98 97.62 526.27 113.53 527.34 126.27C536.17 123.18 559 113.89 566 99Z" fill="#30242A"/>
<path d="M592.7 100.84L619.15 122.13C624.39 119.605 628.541 115.273 630.84 109.93C634.74 100.17 632.22 91.77 629.18 80.87C629.18 80.87 636.93 75.68 635.72 70.87C634.72 66.96 625.89 67.5 625.89 67.5L625.8 67.25L596.36 77.95C601.86 97.18 592.7 100.84 592.7 100.84Z" fill="#30242A"/>
<path d="M585.58 70.66C592.758 65.4737 598.627 58.6836 602.72 50.83L575.72 62.58C579.309 64.8821 582.618 67.5936 585.58 70.66Z" fill="#30242A"/>
<path d="M571.1 60.09L571 60L571.1 60.09Z" fill="#4756DF"/>
<path d="M550.4 64.8C554.01 59.75 558.34 57.97 562.71 58.03H562.61C560.1 30.28 566.29 15.19 570.88 8.03003C566.478 8.67999 562.133 9.66281 557.88 10.97C526.07 20.6 522.42 51.97 523.31 70.63C523.48 74.37 523.8 79.35 524.19 84.97L547.1 74.97C547.089 71.3151 548.245 67.7521 550.4 64.8Z" fill="#4756DF"/>
<path d="M574.18 61.66C573.69 61.38 573.18 61.11 572.69 60.85C573.2 61.11 573.69 61.38 574.18 61.66Z" fill="#3EC1F3"/>
<path d="M575.71 62.58C575.23 62.27 574.71 61.98 574.23 61.69C574.73 62 575.23 62.27 575.71 62.58Z" fill="#3EC1F3"/>
<path d="M567.64 58.81C567.14 58.66 566.64 58.53 566.12 58.42C566.63 58.53 567.14 58.66 567.64 58.81Z" fill="#3EC1F3"/>
<path d="M572.61 60.81C572.11 60.56 571.61 60.31 571.1 60.09C571.61 60.31 572.11 60.56 572.61 60.81Z" fill="#3EC1F3"/>
<path d="M564.22 58.12C563.72 58.07 563.22 58.04 562.71 58.03C563.21 58 563.72 58.07 564.22 58.12Z" fill="#3EC1F3"/>
<path d="M565.94 58.39C565.43 58.28 564.94 58.2 564.42 58.14C564.93 58.2 565.43 58.28 565.94 58.39Z" fill="#3EC1F3"/>
<path d="M569.33 59.36C568.82 59.18 568.33 59.01 567.81 58.85C568.32 59 568.82 59.18 569.33 59.36Z" fill="#3EC1F3"/>
<path d="M571 60C570.51 59.77 570 59.57 569.49 59.37C570 59.61 570.49 59.81 571 60Z" fill="#3EC1F3"/>
<path d="M562.61 58H562.71C563.21 58 563.71 58 564.22 58.09H564.42C564.93 58.15 565.42 58.23 565.94 58.34H566.12C566.63 58.45 567.12 58.58 567.64 58.73H567.81C568.32 58.89 568.81 59.06 569.33 59.24H569.47C569.98 59.44 570.47 59.64 570.98 59.87L571.1 59.92C571.61 60.14 572.1 60.39 572.61 60.64H572.69C573.2 60.9 573.69 61.17 574.18 61.45H574.23C574.73 61.74 575.23 62.03 575.71 62.34L602.71 50.59L620.24 42.96C614.89 24.3 603.24 3.22 570.87 7.82C566.29 15.18 560.1 30.27 562.61 58Z" fill="#3EC1F3"/>
<path d="M714.62 254.86C707.439 254.862 700.445 257.142 694.642 261.372C688.84 265.602 684.529 271.564 682.33 278.4C697.05 285.88 712.62 290.48 724.71 286.03C732.116 283.179 739.073 279.28 745.37 274.45C742.642 268.595 738.299 263.641 732.852 260.171C727.404 256.7 721.079 254.858 714.62 254.86Z" fill="#CA7358"/>
<path d="M623 311.24C656 289.69 633 253 631.2 252.11C655.95 220.94 619.28 195.27 619.28 195.27C619.28 195.27 631.16 164.71 604.28 148.51H594.06L593.3 135.68H529.4L528.24 136.01L529.32 148.51H508.7L478.05 196.66L468.44 250.66L468.93 251.47C468.603 252.077 468.27 252.687 467.93 253.3C461.73 265.5 460.82 275.88 462.41 284.3C465.72 301.91 479.9 311.19 479.9 311.19H623V311.24Z" fill="#FF7235"/>
<path d="M479.94 327.31H622.95V314.45V311.24H479.94V314.45V327.31Z" fill="#30242A"/>
<path d="M465 195.27H619.28" stroke="#A15842" stroke-width="4" stroke-miterlimit="10" stroke-linecap="round"/>
<path d="M468.68 252.11H632" stroke="#A15842" stroke-width="4" stroke-miterlimit="10" stroke-linecap="round"/>
<path d="M596.36 154.93L596.02 149.51" stroke="#A15842" stroke-width="4" stroke-miterlimit="10" stroke-linecap="round"/>
<path d="M578.94 152.18L578.03 137.51" stroke="#A15842" stroke-width="4" stroke-miterlimit="10" stroke-linecap="round"/>
<path d="M565.19 152.18L564.28 137.51" stroke="#A15842" stroke-width="4" stroke-miterlimit="10" stroke-linecap="round"/>
<path d="M551.44 152.18L550.53 137.51" stroke="#A15842" stroke-width="4" stroke-miterlimit="10" stroke-linecap="round"/>
<path d="M709.08 210.08L698.12 223.69" stroke="#A15842" stroke-width="4" stroke-linecap="round" stroke-linejoin="round"/>
<path d="M579.86 124.68C583.914 126.098 588.113 127.06 592.38 127.55" stroke="#A15842" stroke-width="4" stroke-miterlimit="10" stroke-linecap="round"/>
<path d="M791.68 143C791.73 145.69 793.68 147.59 796.75 147.59H826.66C830.8 147.59 835.52 144.23 837.2 140.08L846.32 117.5C847.99 113.36 845.99 110 841.85 110H811.93C807.79 110 803.07 113.36 801.4 117.5L797.68 126.71C799.9 129.11 798 135 791.68 143Z" fill="#F5EBDD"/>
<path d="M853.27 95.34H845.19L844.48 97.09C843.919 98.3926 843.012 99.5166 841.857 100.34C840.703 101.163 839.344 101.654 837.93 101.76H822.51C819.94 101.76 818.69 99.67 819.73 97.09L820.44 95.34H812.36C808.21 95.34 803.5 98.7 801.82 102.85L792.56 125.76C793.456 125.543 794.384 125.489 795.3 125.6C796.2 125.681 797.043 126.078 797.68 126.72L801.4 117.51C803.07 113.37 807.79 110.01 811.93 110.01H841.85C845.99 110.01 847.99 113.37 846.32 117.51L837.2 140.09C835.52 144.24 830.8 147.6 826.66 147.6H796.75C793.64 147.6 791.75 145.7 791.68 143.01C788.362 147.161 784.75 151.068 780.87 154.7L780.74 155.03L766.74 189.6C765.07 193.74 767.07 197.1 771.21 197.1H812.13C816.27 197.1 820.99 193.74 822.66 189.6L857.66 102.85C859.42 98.7 857.42 95.34 853.27 95.34ZM813.27 183.34C812.725 184.606 811.843 185.699 810.72 186.5C809.606 187.365 808.25 187.862 806.84 187.92H784C781.46 187.92 780.24 185.87 781.26 183.34C781.815 182.063 782.708 180.961 783.843 180.154C784.978 179.347 786.311 178.865 787.7 178.76H810.62C813.1 178.77 814.32 180.82 813.3 183.35L813.27 183.34Z" fill="#4756DF"/>
<path d="M810.57 178.77H787.65C786.261 178.875 784.928 179.357 783.793 180.164C782.658 180.971 781.765 182.073 781.21 183.35C780.21 185.88 781.41 187.93 783.95 187.93H806.87C808.28 187.872 809.636 187.376 810.75 186.51C811.873 185.709 812.755 184.616 813.3 183.35C814.32 180.82 813.1 178.77 810.57 178.77Z" fill="#3EC1F3"/>
<path d="M822.51 101.76H837.93C839.344 101.654 840.703 101.163 841.857 100.34C843.012 99.5166 843.919 98.3926 844.48 97.09L845.19 95.34H820.44L819.73 97.09C818.69 99.67 819.94 101.76 822.51 101.76Z" fill="#3EC1F3"/>
<path d="M643.12 34.84L581.7 62.34" stroke="#30242A" stroke-width="4" stroke-linecap="round" stroke-linejoin="round"/>
<path d="M623.39 92.2C621.55 92.69 615.53 91.68 614.54 86.51" stroke="black" stroke-width="4" stroke-miterlimit="10" stroke-linecap="round"/>
<path d="M613.92 66.05C615.555 66.05 616.88 64.7248 616.88 63.09C616.88 61.4552 615.555 60.13 613.92 60.13C612.285 60.13 610.96 61.4552 610.96 63.09C610.96 64.7248 612.285 66.05 613.92 66.05Z" fill="#30242A"/>
<path d="M563.11 76.52L573.86 83.36" stroke="#A15842" stroke-width="4" stroke-miterlimit="10" stroke-linecap="round"/>
<path d="M586.28 68.76L598.2 77.92" stroke="#30242A" stroke-width="4" stroke-linecap="round" stroke-linejoin="round"/>
<path d="M563.36 99.93L595.45 100.84" stroke="#30242A" stroke-width="4" stroke-linecap="round" stroke-linejoin="round"/>
<path d="M688 314.45C691.647 314.45 695.144 315.899 697.723 318.477C700.301 321.056 701.75 324.553 701.75 328.2V328.2C701.755 330.01 701.404 331.802 700.715 333.476C700.027 335.149 699.015 336.67 697.737 337.952C696.46 339.234 694.943 340.251 693.272 340.946C691.601 341.641 689.81 341.999 688 342" stroke="#FF7235" stroke-width="4" stroke-miterlimit="10"/>
<path d="M707.29 314.45C710.93 314.461 714.417 315.914 716.987 318.491C719.557 321.069 721 324.56 721 328.2C721.011 331.848 719.573 335.35 717.002 337.938C714.431 340.526 710.938 341.987 707.29 342" stroke="#FF7235" stroke-width="4" stroke-miterlimit="10"/>
<path d="M806.4 316.28H654.94C648.412 316.28 643.12 321.572 643.12 328.1V328.3C643.12 334.828 648.412 340.12 654.94 340.12H806.4C812.928 340.12 818.22 334.828 818.22 328.3V328.1C818.22 321.572 812.928 316.28 806.4 316.28Z" fill="#30242A"/>
<path d="M831.802 824.408L740.575 316.882L717.111 321.1L808.338 828.626L831.802 824.408Z" fill="#30242A"/>
<path d="M655.14 316.28H654.94C648.412 316.28 643.12 321.572 643.12 328.1V328.3C643.12 334.828 648.412 340.12 654.94 340.12H655.14C661.668 340.12 666.96 334.828 666.96 328.3V328.1C666.96 321.572 661.668 316.28 655.14 316.28Z" stroke="#FF7235" stroke-width="4" stroke-miterlimit="10"/>
<path d="M769.56 315.2C772.26 316.139 774.6 317.895 776.256 320.225C777.912 322.554 778.801 325.342 778.8 328.2V328.2C778.799 330.871 778.021 333.484 776.559 335.72C775.098 337.956 773.017 339.718 770.57 340.79" stroke="#FF7235" stroke-width="4" stroke-miterlimit="10" stroke-linecap="round"/>
<path d="M785.56 315.2C788.26 316.139 790.6 317.895 792.256 320.225C793.912 322.554 794.801 325.342 794.8 328.2V328.2C794.799 330.871 794.021 333.484 792.559 335.72C791.098 337.956 789.017 339.718 786.57 340.79" stroke="#FF7235" stroke-width="4" stroke-miterlimit="10" stroke-linecap="round"/>
<path d="M820.05 827.83H485.44V851.67H820.05V827.83Z" fill="#30242A"/>
<path d="M506.06 881C522.264 881 535.4 867.864 535.4 851.66C535.4 835.456 522.264 822.32 506.06 822.32C489.856 822.32 476.72 835.456 476.72 851.66C476.72 867.864 489.856 881 506.06 881Z" fill="#30242A"/>
<path d="M506.06 862.66C512.135 862.66 517.06 857.735 517.06 851.66C517.06 845.585 512.135 840.66 506.06 840.66C499.985 840.66 495.06 845.585 495.06 851.66C495.06 857.735 499.985 862.66 506.06 862.66Z" fill="#FFB7D5"/>
<path d="M825.25 881C841.454 881 854.59 867.864 854.59 851.66C854.59 835.456 841.454 822.32 825.25 822.32C809.046 822.32 795.91 835.456 795.91 851.66C795.91 867.864 809.046 881 825.25 881Z" fill="#30242A"/>
<path d="M825.25 862.66C831.325 862.66 836.25 857.735 836.25 851.66C836.25 845.585 831.325 840.66 825.25 840.66C819.175 840.66 814.25 845.585 814.25 851.66C814.25 857.735 819.175 862.66 825.25 862.66Z" fill="#FFB7D5"/>
<path d="M551.9 851.66H460.23C460.408 839.621 465.315 828.135 473.891 819.685C482.468 811.234 494.025 806.497 506.065 806.497C518.105 806.497 529.662 811.234 538.239 819.685C546.815 828.135 551.722 839.621 551.9 851.66Z" fill="#FF7235"/>
<path d="M871.08 851.66H779.41C779.588 839.621 784.495 828.135 793.071 819.685C801.648 811.234 813.205 806.497 825.245 806.497C837.285 806.497 848.842 811.234 857.418 819.685C865.995 828.135 870.902 839.621 871.08 851.66Z" fill="#FF7235"/>
<path d="M596.64 748.07H682.38C683.38 733.07 686.22 712.13 689.71 683.37C697.07 622.64 702.59 567.43 695.23 523.27C687.87 479.11 622.95 327.27 622.95 327.27H500.68C491.08 410.12 571.26 504.33 596.78 543.46C624.38 585.79 601.38 613.39 586.66 654.79C571.94 696.19 596.78 713.68 596.78 713.68C596.019 725.129 595.972 736.615 596.64 748.07Z" fill="#4856DF"/>
<path d="M610.5 816.83H731.22C722.69 796.83 696.53 786.94 687.87 779.06C682.54 774.22 681.3 764.78 682.38 748.06H596.64C598.51 780.06 605.64 803.89 610.5 816.83Z" fill="#30242A"/>
<path d="M615.18 827.83H733.88C733.622 824.039 732.723 820.32 731.22 816.83H610.5C611.861 820.578 613.423 824.25 615.18 827.83Z" fill="#3EC1F3"/>
<path d="M629.98 716.9V747" stroke="#3EC1F3" stroke-width="4" stroke-miterlimit="10" stroke-linecap="round"/>
<path d="M609.2 716.9V747" stroke="#3EC1F3" stroke-width="4" stroke-miterlimit="10" stroke-linecap="round"/>
<path d="M650.76 716.9V747" stroke="#3EC1F3" stroke-width="4" stroke-miterlimit="10" stroke-linecap="round"/>
<path d="M671.54 716.9V747" stroke="#3EC1F3" stroke-width="4" stroke-miterlimit="10" stroke-linecap="round"/>
<path d="M597 715.98H685" stroke="#3EC1F3" stroke-width="4" stroke-miterlimit="10" stroke-linecap="round"/>
<path d="M652.25 398.44C649.25 391.02 646.39 383.84 643.64 377.09L598.64 369.19V369.35C597.751 374.412 598.908 379.619 601.858 383.827C604.808 388.035 609.309 390.9 614.37 391.79L652.25 398.44Z" fill="#3EC1F3"/>
<path d="M668.79 772.82L683 767" stroke="white" stroke-width="4" stroke-linecap="round" stroke-linejoin="round"/>
<path d="M676.13 786.58L688 777" stroke="white" stroke-width="4" stroke-linecap="round" stroke-linejoin="round"/>
<path d="M823.72 187C823.72 187 839.46 187.62 840.72 173.87C840.72 173.87 851.96 168.7 849.02 158.43C849.02 158.43 859.3 155.49 856.36 145.21C856.17 144.56 862.2 143.39 861.9 134.92C861.46 122.56 853.08 113.66 849.42 112.74C838.42 109.99 842.6 127.86 842.08 127.41C835.67 121.91 826.31 119.41 822.97 122.21C817.15 127.09 821.19 133.61 821.19 133.61C821.19 133.61 813.73 131.85 810.08 137.24C805.64 143.78 813.58 149.88 813.58 149.88C813.58 149.88 805.26 150.81 806.65 158.51C808.19 167.12 821.12 169.04 827.25 178.06L823.72 187Z" fill="#EAA58B"/>
<path d="M813.24 148.3C822 151.59 837.24 158.88 841.57 170.91" stroke="#A15842" stroke-width="4" stroke-linecap="round" stroke-linejoin="round"/>
<path d="M823.06 133C830.56 137.09 843.81 145.49 849.78 156.45" stroke="#A15842" stroke-width="4" stroke-linecap="round" stroke-linejoin="round"/>
<path d="M843.5 126C848.43 130.38 853.78 136.21 857.05 143" stroke="#A15842" stroke-width="4" stroke-linecap="round" stroke-linejoin="round"/>
<path d="M529.44 148.51C529.44 148.51 562.3 198 553.28 245.69C546.86 279.61 469.85 309 424.93 319V292.44C424.93 292.44 518.44 269.53 529.44 228.27C536.11 203.27 509.27 148.51 509.27 148.51" fill="#F5EBDD"/>
<path d="M746.71 309C741.21 295.24 723.79 280.58 703.62 273.24C664.86 259.15 570.69 279.66 570.69 279.66L556.58 249.53L487.15 283.53C497.15 303.04 509.15 319.44 521.41 330.78C525.584 325.611 531.185 321.783 537.517 319.771C543.849 317.759 550.633 317.652 557.025 319.463C563.417 321.274 569.136 324.923 573.472 329.958C577.807 334.992 580.567 341.19 581.41 347.78C619.8 344.78 662.26 327.23 674.3 316.4C674.3 316.4 681.63 322.82 689.88 323.73C689.88 326.48 677.05 363.15 699.97 354.9C699.97 354.9 706.38 363.15 715.55 353.99C715.55 353.99 721.97 363.15 731.14 354.9C731.14 354.9 736.14 358.03 743.05 350.32C751.29 341 753.73 326.49 746.71 309Z" fill="#EAA58B"/>
<path d="M509.27 148.51H507C488.39 148.51 457.92 162.27 461.59 197.91C464.812 227.744 473.471 256.736 487.14 283.45L556.57 249.45L509.27 148.51Z" fill="#FFB7D5"/>
<path d="M547.78 318.11C542.723 318.106 537.73 319.235 533.167 321.414C528.604 323.593 524.586 326.766 521.41 330.7C523.95 333.071 526.621 335.297 529.41 337.37C542.32 346.81 561.29 349.23 581.41 347.66C580.353 339.489 576.356 331.983 570.167 326.544C563.977 321.106 556.019 318.108 547.78 318.11Z" fill="#CA7358"/>
<path d="M700.77 353.36C704.77 345.36 713.85 324.62 707.29 310.78" stroke="#A15842" stroke-width="4" stroke-linecap="round" stroke-linejoin="round"/>
<path d="M546.86 282.36L568.47 277.93" stroke="#A15842" stroke-width="4" stroke-linecap="round" stroke-linejoin="round"/>
<path d="M717 353C721.16 344.56 730.16 324.21 723.79 310.78" stroke="#A15842" stroke-width="4" stroke-linecap="round" stroke-linejoin="round"/>
<path d="M733 354C737 345.94 745.89 324.54 739.38 310.78" stroke="#A15842" stroke-width="4" stroke-linecap="round" stroke-linejoin="round"/>
</svg>
