<svg width="764" height="608" viewBox="0 0 764 608" fill="none" xmlns="http://www.w3.org/2000/svg">
<circle cx="382" cy="304" r="267" stroke="#F05454" stroke-width="4" stroke-dasharray="8 8"/>
<circle cx="155" cy="165" r="50" fill="#F05454"/>
<g clip-path="url(#clip0_4_4)">
<path d="M127.594 180.577C125.906 182.113 125.428 184.815 125.428 184.815C125.428 184.815 127.685 185.027 129.373 183.492C131.061 181.956 131.539 179.254 131.539 179.254C131.539 179.254 129.281 179.042 127.594 180.577Z" fill="#F1F1F1"/>
<path d="M128.297 181.298C127.485 183.67 125.454 184.891 125.454 184.891C125.454 184.891 124.738 182.269 125.549 179.898C126.36 177.527 128.391 176.305 128.391 176.305C128.391 176.305 129.108 178.927 128.297 181.298Z" fill="#F1F1F1"/>
<path d="M176.852 174.444C176.672 172.969 176.625 171.475 176.71 169.988L176.852 167.527C176.073 169.418 176.249 171.907 176.852 174.444V174.444Z" fill="#CACACA"/>
<path d="M177.459 174.855C177.372 173.976 177.35 173.088 177.391 172.203L177.459 170.739C177.084 171.864 177.169 173.346 177.459 174.855Z" fill="#CACACA"/>
<path d="M180.157 176.667V177.49C180.157 177.556 180.135 177.618 180.098 177.665C180.06 177.711 180.008 177.737 179.955 177.737H179.618C179.609 177.737 179.6 177.74 179.592 177.744C179.583 177.748 179.576 177.754 179.57 177.761C179.563 177.769 179.559 177.778 179.555 177.788C179.552 177.798 179.55 177.809 179.55 177.82V184.572C179.55 184.637 179.528 184.7 179.49 184.746C179.453 184.792 179.401 184.818 179.348 184.819H175.233C175.18 184.818 175.128 184.792 175.09 184.746C175.052 184.7 175.031 184.637 175.031 184.572V177.82C175.031 177.798 175.024 177.777 175.011 177.762C174.998 177.746 174.981 177.738 174.963 177.737H174.559C174.505 177.737 174.454 177.711 174.416 177.665C174.378 177.619 174.356 177.556 174.356 177.49V176.667C174.356 176.635 174.362 176.602 174.372 176.572C174.382 176.542 174.397 176.515 174.416 176.492C174.434 176.469 174.457 176.451 174.481 176.439C174.506 176.426 174.532 176.42 174.559 176.42H179.955C180.008 176.42 180.06 176.446 180.098 176.493C180.136 176.539 180.157 176.602 180.157 176.667Z" fill="#F2F2F2"/>
<path d="M179.556 177.91H175.037V178.157H179.556V177.91Z" fill="#E6E6E6"/>
<path d="M179.55 181.545C178.038 182.309 176.509 182.317 174.963 181.545V179.805C176.451 179.195 178.062 179.195 179.55 179.805V181.545Z" fill="#E6E6E6"/>
<path d="M154.219 154.937C157.595 154.937 160.332 151.597 160.332 147.476C160.332 143.355 157.595 140.014 154.219 140.014C150.844 140.014 148.107 143.355 148.107 147.476C148.107 151.597 150.844 154.937 154.219 154.937Z" fill="#FEB8B8"/>
<path d="M159.929 141.038C159.015 139.227 157.584 137.892 155.912 137.291L155.162 137.959V137.091C154.761 137.016 154.354 136.987 153.948 137.005L153.301 137.72V137.064C152.342 137.21 151.419 137.596 150.589 138.199C149.759 138.802 149.04 139.608 148.477 140.567C147.072 143.041 146.834 146.483 148.217 148.977C148.597 147.553 149.057 146.217 149.437 144.793C149.735 144.843 150.038 144.844 150.337 144.798L150.798 143.483L150.927 144.743C152.359 144.59 154.482 144.256 155.839 143.95L155.707 142.983L156.497 143.786C156.912 143.67 157.159 143.564 157.139 143.483C158.148 145.469 159.383 146.737 160.393 148.724C160.776 145.923 161.217 143.594 159.929 141.038Z" fill="#2F2E41"/>
<path d="M167.366 166.663C167.156 165.12 166.939 163.547 166.351 162.156C165.965 161.245 165.352 160.377 164.525 160.197C164.362 160.179 164.202 160.134 164.05 160.063C163.807 159.92 160.553 157.652 160.036 157.257C159.591 156.918 158.89 156.29 158.537 156.29C158.181 156.281 156.817 156.668 151.495 156.16C151.495 156.16 150.032 156.864 148.901 157.717C148.884 157.703 143.376 161.313 143.17 161.304C142.778 161.284 142.413 161.59 142.189 161.976C141.964 162.361 141.859 162.839 141.749 163.3C142.952 166.571 144.052 169.845 145.255 173.115C145.311 173.238 145.341 173.377 145.342 173.518C145.318 173.664 145.267 173.802 145.193 173.921C144.603 175.077 144.621 176.532 144.686 177.892C144.75 179.252 144.83 180.688 144.332 181.907C144.197 182.241 144.021 182.547 143.892 182.882C143.59 183.64 143.481 186.064 143.658 186.878L165.725 187.649C165.251 186.057 167.366 166.663 167.366 166.663Z" fill="#F9A826"/>
<path d="M139.841 173.26C139.797 173.649 139.793 174.043 139.828 174.433L140.144 179.978C140.174 180.5 140.203 181.022 140.243 181.543C140.319 182.555 140.433 183.558 140.573 184.561C140.576 184.703 140.626 184.838 140.71 184.936C140.795 185.034 140.908 185.087 141.024 185.083C142.417 185.443 143.855 185.428 145.276 185.33C147.444 185.183 152.992 184.903 153.33 184.366C153.669 183.828 153.472 182.959 153.03 182.524C152.588 182.09 145.268 181.03 145.268 181.03C145.339 180.339 145.555 179.687 145.76 179.03C146.127 177.865 146.471 176.661 146.477 175.413C146.484 174.165 146.099 172.853 145.261 172.138C144.572 171.55 143.685 171.442 142.845 171.466C142.235 171.487 141.179 171.309 140.621 171.6C140.18 171.837 139.924 172.732 139.841 173.26Z" fill="#FBBEBE"/>
<path d="M141.685 163.4C141.578 163.537 141.495 163.699 141.441 163.877C140.551 166.325 140.026 168.946 139.889 171.618C139.891 171.749 139.867 171.878 139.817 171.993C139.769 172.07 139.715 172.142 139.656 172.207C139.604 172.281 139.565 172.367 139.541 172.46C139.517 172.553 139.508 172.651 139.515 172.748C139.521 172.845 139.544 172.939 139.58 173.026C139.617 173.112 139.667 173.189 139.728 173.252C139.738 173.262 139.748 173.272 139.759 173.282C139.941 172.865 140.375 172.728 140.762 172.692C142.612 172.513 144.419 173.564 146.275 173.485C146.144 172.932 145.955 172.402 145.849 171.843C145.376 169.361 146.554 166.66 145.832 164.269C145.688 163.791 145.447 163.321 145.067 163.111C144.91 163.034 144.745 162.981 144.577 162.953C144.109 162.85 143.175 162.408 142.722 162.585C142.555 162.651 142.489 162.843 142.35 162.959C142.139 163.123 141.86 163.184 141.685 163.4Z" fill="#F9A826"/>
<path d="M167.379 171.6C166.821 171.309 165.765 171.487 165.155 171.466C164.315 171.442 163.428 171.55 162.739 172.138C161.901 172.853 161.516 174.165 161.523 175.413C161.529 176.661 161.873 177.865 162.24 179.03C162.445 179.687 162.661 180.339 162.732 181.03C162.732 181.03 155.412 182.09 154.97 182.524C154.528 182.959 154.331 183.828 154.669 184.366C155.008 184.903 165.583 185.443 166.976 185.083C167.092 185.087 167.205 185.034 167.29 184.936C167.374 184.838 167.424 184.703 167.427 184.56C167.567 183.558 167.681 182.555 167.757 181.543C167.797 181.022 167.826 180.5 167.856 179.978L168.172 174.433C168.207 174.043 168.203 173.649 168.159 173.26C168.076 172.732 167.82 171.837 167.379 171.6Z" fill="#FBBEBE"/>
<path d="M165.65 162.959C165.511 162.843 165.445 162.651 165.278 162.585C164.825 162.408 163.891 162.85 163.423 162.953C163.255 162.981 163.09 163.034 162.933 163.111C162.553 163.321 162.312 163.791 162.168 164.269C161.446 166.66 162.624 169.361 162.151 171.843C162.045 172.402 161.856 172.932 161.725 173.485C163.581 173.564 165.388 172.513 167.238 172.692C167.625 172.728 168.059 172.865 168.241 173.282C168.252 173.272 168.262 173.262 168.272 173.252C168.333 173.189 168.383 173.112 168.42 173.026C168.456 172.939 168.479 172.845 168.485 172.748C168.492 172.651 168.483 172.553 168.459 172.46C168.435 172.367 168.396 172.281 168.344 172.207C168.285 172.142 168.231 172.07 168.183 171.993C168.133 171.878 168.109 171.749 168.111 171.618C167.974 168.946 167.449 166.325 166.559 163.877C166.505 163.699 166.422 163.537 166.315 163.4C166.14 163.184 165.861 163.123 165.65 162.959Z" fill="#F9A826"/>
<path d="M152.409 185.348C153.32 185.348 154.059 184.446 154.059 183.334C154.059 182.222 153.32 181.32 152.409 181.32C151.498 181.32 150.759 182.222 150.759 183.334C150.759 184.446 151.498 185.348 152.409 185.348Z" fill="#FBBEBE"/>
<path d="M156.062 185.348C156.973 185.348 157.712 184.446 157.712 183.334C157.712 182.222 156.973 181.32 156.062 181.32C155.151 181.32 154.412 182.222 154.412 183.334C154.412 184.446 155.151 185.348 156.062 185.348Z" fill="#FBBEBE"/>
<path d="M166.246 187.872H143.581C143.316 187.872 143.062 187.743 142.875 187.515C142.688 187.286 142.583 186.977 142.582 186.654V169.868C142.583 169.545 142.688 169.236 142.875 169.007C143.062 168.779 143.316 168.65 143.581 168.65H166.246C166.51 168.65 166.764 168.779 166.951 169.007C167.138 169.236 167.244 169.545 167.244 169.868V186.654C167.244 186.977 167.138 187.286 166.951 187.515C166.764 187.743 166.51 187.872 166.246 187.872Z" fill="#3F3D56"/>
<path d="M154.858 179.067C155.223 179.067 155.519 178.706 155.519 178.261C155.519 177.816 155.223 177.455 154.858 177.455C154.493 177.455 154.198 177.816 154.198 178.261C154.198 178.706 154.493 179.067 154.858 179.067Z" fill="white"/>
<path d="M192 184.486H116V187.337H120.495V188H187.506V187.337H192V184.486Z" fill="#F1F1F1"/>
<path d="M148.599 150.257C147.617 150.257 146.82 149.206 146.82 147.91V146.736C146.82 145.44 147.617 144.389 148.599 144.389V150.257H148.599Z" fill="#F9A826"/>
<path d="M159.949 144.389C160.931 144.389 161.728 145.44 161.728 146.736V147.91C161.728 149.206 160.931 150.257 159.949 150.257V144.389Z" fill="#F9A826"/>
<path d="M160.881 146.92H160.599C160.599 142.197 157.688 138.355 154.109 138.355C150.531 138.355 147.62 142.197 147.62 146.92H147.338C147.338 141.992 150.375 137.982 154.109 137.982C157.843 137.982 160.881 141.992 160.881 146.92Z" fill="#F9A826"/>
</g>
<circle cx="647" cy="313" r="50" fill="#537EC5"/>
<g clip-path="url(#clip1_4_4)">
<path d="M619.594 328.577C617.906 330.113 617.428 332.815 617.428 332.815C617.428 332.815 619.685 333.027 621.373 331.492C623.061 329.956 623.539 327.254 623.539 327.254C623.539 327.254 621.281 327.042 619.594 328.577Z" fill="#F1F1F1"/>
<path d="M620.297 329.298C619.485 331.67 617.454 332.891 617.454 332.891C617.454 332.891 616.738 330.269 617.549 327.898C618.36 325.527 620.391 324.305 620.391 324.305C620.391 324.305 621.108 326.927 620.297 329.298Z" fill="#F1F1F1"/>
<path d="M668.852 322.444C668.672 320.969 668.625 319.475 668.71 317.988L668.852 315.527C668.073 317.418 668.249 319.907 668.852 322.444V322.444Z" fill="#CACACA"/>
<path d="M669.459 322.855C669.372 321.976 669.35 321.088 669.391 320.203L669.459 318.739C669.084 319.864 669.169 321.346 669.459 322.855Z" fill="#CACACA"/>
<path d="M672.157 324.667V325.49C672.157 325.556 672.135 325.618 672.098 325.665C672.06 325.711 672.008 325.737 671.955 325.737H671.618C671.609 325.737 671.6 325.74 671.592 325.744C671.583 325.748 671.576 325.754 671.57 325.761C671.563 325.769 671.559 325.778 671.555 325.788C671.552 325.798 671.55 325.809 671.55 325.82V332.572C671.55 332.637 671.528 332.7 671.49 332.746C671.453 332.792 671.401 332.818 671.348 332.819H667.233C667.18 332.818 667.128 332.792 667.09 332.746C667.052 332.7 667.031 332.637 667.031 332.572V325.82C667.031 325.798 667.024 325.777 667.011 325.762C666.998 325.746 666.981 325.738 666.963 325.737H666.559C666.505 325.737 666.454 325.711 666.416 325.665C666.378 325.619 666.356 325.556 666.356 325.49V324.667C666.356 324.635 666.362 324.602 666.372 324.572C666.382 324.542 666.397 324.515 666.416 324.492C666.434 324.469 666.457 324.451 666.481 324.439C666.506 324.426 666.532 324.42 666.559 324.42H671.955C672.008 324.42 672.06 324.446 672.098 324.493C672.136 324.539 672.157 324.602 672.157 324.667Z" fill="#F2F2F2"/>
<path d="M671.556 325.91H667.037V326.157H671.556V325.91Z" fill="#E6E6E6"/>
<path d="M671.55 329.545C670.038 330.309 668.509 330.317 666.963 329.545V327.805C668.451 327.195 670.062 327.195 671.55 327.805V329.545Z" fill="#E6E6E6"/>
<path d="M646.219 302.937C649.595 302.937 652.332 299.597 652.332 295.476C652.332 291.355 649.595 288.014 646.219 288.014C642.844 288.014 640.107 291.355 640.107 295.476C640.107 299.597 642.844 302.937 646.219 302.937Z" fill="#FEB8B8"/>
<path d="M651.929 289.038C651.015 287.227 649.584 285.892 647.912 285.291L647.162 285.959V285.091C646.761 285.016 646.354 284.987 645.948 285.005L645.301 285.72V285.064C644.342 285.21 643.419 285.596 642.589 286.199C641.759 286.802 641.04 287.608 640.477 288.567C639.072 291.041 638.834 294.483 640.217 296.977C640.597 295.553 641.057 294.217 641.437 292.793C641.735 292.843 642.038 292.844 642.337 292.798L642.798 291.483L642.927 292.743C644.359 292.59 646.482 292.256 647.839 291.95L647.707 290.983L648.497 291.786C648.912 291.67 649.159 291.564 649.139 291.483C650.148 293.469 651.383 294.737 652.393 296.724C652.776 293.923 653.217 291.594 651.929 289.038Z" fill="#2F2E41"/>
<path d="M659.366 314.663C659.155 313.12 658.939 311.547 658.351 310.156C657.965 309.245 657.352 308.377 656.525 308.197C656.362 308.179 656.202 308.134 656.05 308.063C655.807 307.92 652.553 305.652 652.036 305.257C651.591 304.918 650.89 304.29 650.537 304.29C650.181 304.281 648.817 304.668 643.495 304.16C643.495 304.16 642.032 304.864 640.901 305.717C640.884 305.703 635.376 309.313 635.17 309.304C634.778 309.284 634.413 309.59 634.189 309.976C633.964 310.361 633.859 310.839 633.749 311.3C634.952 314.571 636.052 317.845 637.255 321.115C637.311 321.238 637.341 321.377 637.342 321.518C637.318 321.664 637.267 321.802 637.193 321.921C636.603 323.077 636.621 324.532 636.686 325.892C636.75 327.252 636.83 328.688 636.332 329.907C636.197 330.241 636.021 330.547 635.892 330.882C635.59 331.64 635.481 334.064 635.658 334.878L657.725 335.649C657.251 334.057 659.366 314.663 659.366 314.663Z" fill="#F9A826"/>
<path d="M631.841 321.26C631.797 321.649 631.793 322.043 631.828 322.433L632.144 327.978C632.174 328.5 632.203 329.022 632.243 329.543C632.319 330.555 632.433 331.558 632.573 332.561C632.576 332.703 632.626 332.838 632.71 332.936C632.795 333.034 632.908 333.087 633.024 333.083C634.417 333.443 635.855 333.428 637.276 333.33C639.444 333.183 644.992 332.903 645.33 332.366C645.669 331.828 645.472 330.959 645.03 330.524C644.588 330.09 637.268 329.03 637.268 329.03C637.339 328.339 637.555 327.687 637.76 327.03C638.127 325.865 638.471 324.661 638.477 323.413C638.484 322.165 638.099 320.853 637.261 320.138C636.572 319.55 635.685 319.442 634.845 319.466C634.235 319.487 633.179 319.309 632.621 319.6C632.18 319.837 631.924 320.732 631.841 321.26Z" fill="#FBBEBE"/>
<path d="M633.685 311.4C633.578 311.537 633.495 311.699 633.441 311.877C632.551 314.325 632.026 316.946 631.889 319.618C631.891 319.749 631.867 319.878 631.817 319.993C631.769 320.07 631.715 320.142 631.656 320.207C631.604 320.281 631.565 320.367 631.541 320.46C631.517 320.553 631.508 320.651 631.515 320.748C631.521 320.845 631.544 320.939 631.58 321.026C631.617 321.112 631.667 321.189 631.728 321.252C631.738 321.262 631.748 321.272 631.759 321.282C631.941 320.865 632.375 320.728 632.762 320.692C634.612 320.513 636.419 321.564 638.275 321.485C638.144 320.932 637.955 320.402 637.849 319.843C637.376 317.361 638.554 314.66 637.832 312.269C637.688 311.791 637.447 311.321 637.067 311.111C636.91 311.034 636.745 310.981 636.577 310.953C636.109 310.85 635.175 310.408 634.722 310.585C634.555 310.651 634.489 310.843 634.35 310.959C634.139 311.123 633.86 311.184 633.685 311.4Z" fill="#F9A826"/>
<path d="M659.379 319.6C658.821 319.309 657.765 319.487 657.155 319.466C656.315 319.442 655.428 319.55 654.739 320.138C653.901 320.853 653.516 322.165 653.523 323.413C653.529 324.661 653.873 325.865 654.24 327.03C654.445 327.687 654.661 328.339 654.732 329.03C654.732 329.03 647.412 330.09 646.97 330.524C646.528 330.959 646.331 331.828 646.669 332.366C647.008 332.903 657.583 333.443 658.976 333.083C659.092 333.087 659.205 333.034 659.29 332.936C659.374 332.838 659.424 332.703 659.427 332.56C659.567 331.558 659.681 330.555 659.757 329.543C659.797 329.022 659.826 328.5 659.856 327.978L660.172 322.433C660.207 322.043 660.203 321.649 660.159 321.26C660.076 320.732 659.82 319.837 659.379 319.6Z" fill="#FBBEBE"/>
<path d="M657.65 310.959C657.511 310.843 657.445 310.651 657.278 310.585C656.825 310.408 655.891 310.85 655.423 310.953C655.255 310.981 655.09 311.034 654.933 311.111C654.553 311.321 654.312 311.791 654.168 312.269C653.446 314.66 654.624 317.361 654.151 319.843C654.045 320.402 653.856 320.932 653.725 321.485C655.581 321.564 657.388 320.513 659.238 320.692C659.625 320.728 660.059 320.865 660.241 321.282C660.252 321.272 660.262 321.262 660.272 321.252C660.333 321.189 660.383 321.112 660.42 321.026C660.456 320.939 660.479 320.845 660.485 320.748C660.492 320.651 660.483 320.553 660.459 320.46C660.435 320.367 660.396 320.281 660.344 320.207C660.285 320.142 660.231 320.07 660.183 319.993C660.133 319.878 660.109 319.749 660.111 319.618C659.974 316.946 659.449 314.325 658.559 311.877C658.505 311.699 658.422 311.537 658.315 311.4C658.14 311.184 657.861 311.123 657.65 310.959Z" fill="#F9A826"/>
<path d="M644.409 333.348C645.32 333.348 646.059 332.446 646.059 331.334C646.059 330.222 645.32 329.32 644.409 329.32C643.498 329.32 642.759 330.222 642.759 331.334C642.759 332.446 643.498 333.348 644.409 333.348Z" fill="#FBBEBE"/>
<path d="M648.062 333.348C648.973 333.348 649.712 332.446 649.712 331.334C649.712 330.222 648.973 329.32 648.062 329.32C647.151 329.32 646.412 330.222 646.412 331.334C646.412 332.446 647.151 333.348 648.062 333.348Z" fill="#FBBEBE"/>
<path d="M658.246 335.872H635.581C635.316 335.872 635.062 335.743 634.875 335.515C634.688 335.286 634.583 334.977 634.582 334.654V317.868C634.583 317.545 634.688 317.236 634.875 317.007C635.062 316.779 635.316 316.65 635.581 316.65H658.246C658.51 316.65 658.764 316.779 658.951 317.007C659.138 317.236 659.244 317.545 659.244 317.868V334.654C659.244 334.977 659.138 335.286 658.951 335.515C658.764 335.743 658.51 335.872 658.246 335.872Z" fill="#3F3D56"/>
<path d="M646.858 327.067C647.223 327.067 647.519 326.706 647.519 326.261C647.519 325.816 647.223 325.455 646.858 325.455C646.493 325.455 646.198 325.816 646.198 326.261C646.198 326.706 646.493 327.067 646.858 327.067Z" fill="white"/>
<path d="M684 332.486H608V335.337H612.495V336H679.506V335.337H684V332.486Z" fill="#F1F1F1"/>
<path d="M640.599 298.257C639.617 298.257 638.82 297.206 638.82 295.91V294.736C638.82 293.44 639.617 292.389 640.599 292.389V298.257H640.599Z" fill="#F9A826"/>
<path d="M651.949 292.389C652.931 292.389 653.728 293.44 653.728 294.736V295.91C653.728 297.206 652.931 298.257 651.949 298.257V292.389Z" fill="#F9A826"/>
<path d="M652.881 294.92H652.599C652.599 290.197 649.688 286.355 646.109 286.355C642.531 286.355 639.62 290.197 639.62 294.92H639.338C639.338 289.992 642.375 285.982 646.109 285.982C649.843 285.982 652.881 289.992 652.881 294.92Z" fill="#F9A826"/>
</g>
<circle cx="295" cy="545" r="50" fill="#F9A826"/>
<g clip-path="url(#clip2_4_4)">
<path d="M297.85 582.319C298.297 582.479 298.776 582.52 299.242 582.436C299.708 582.352 300.145 582.147 300.511 581.841C301.443 581.044 301.735 579.73 301.973 578.513L302.676 574.914L301.204 575.947C300.145 576.691 299.062 577.458 298.329 578.535C297.596 579.612 297.277 581.082 297.865 582.247" fill="#E4E4E4"/>
<path d="M298.078 586.928C297.892 585.551 297.702 584.156 297.832 582.765C297.947 581.529 298.317 580.322 299.07 579.332C299.469 578.808 299.955 578.359 300.506 578.005C300.65 577.912 300.782 578.144 300.639 578.236C299.686 578.851 298.949 579.758 298.533 580.827C298.075 582.016 298.001 583.313 298.08 584.576C298.128 585.339 298.23 586.098 298.331 586.856C298.339 586.891 298.334 586.927 298.317 586.957C298.3 586.988 298.272 587.011 298.239 587.021C298.206 587.031 298.17 587.026 298.14 587.008C298.109 586.991 298.087 586.962 298.078 586.928L298.078 586.928Z" fill="#F2F2F2"/>
<path d="M299.411 584.719C299.603 585.015 299.866 585.257 300.175 585.42C300.485 585.583 300.831 585.662 301.179 585.649C302.074 585.606 302.819 584.969 303.491 584.365L305.477 582.576L304.162 582.512C303.217 582.466 302.247 582.423 301.347 582.72C300.447 583.018 299.617 583.733 299.452 584.683" fill="#E4E4E4"/>
<path d="M297.554 587.719C298.446 586.109 299.481 584.32 301.33 583.749C301.844 583.59 302.383 583.533 302.918 583.581C303.086 583.596 303.044 583.861 302.876 583.846C301.979 583.77 301.084 584.012 300.341 584.53C299.627 585.026 299.07 585.716 298.599 586.447C298.311 586.895 298.053 587.362 297.794 587.829C297.712 587.978 297.47 587.87 297.554 587.719Z" fill="#F2F2F2"/>
<path d="M327.166 568.207H262V521H327.166V568.207Z" fill="white"/>
<path d="M267.308 540.389C267.14 540.389 266.978 540.457 266.859 540.579C266.74 540.7 266.673 540.865 266.673 541.036C266.673 541.208 266.74 541.373 266.859 541.494C266.978 541.616 267.14 541.684 267.308 541.684H289.315C289.483 541.684 289.644 541.615 289.763 541.494C289.882 541.372 289.949 541.208 289.949 541.036C289.949 540.865 289.882 540.7 289.763 540.579C289.644 540.458 289.483 540.389 289.315 540.389H267.308Z" fill="#537EC5"/>
<path d="M267.308 544.274C267.14 544.274 266.978 544.341 266.859 544.463C266.74 544.584 266.672 544.748 266.672 544.92C266.672 545.092 266.738 545.257 266.857 545.378C266.976 545.5 267.137 545.569 267.306 545.569H289.331C289.5 545.569 289.661 545.501 289.78 545.379C289.899 545.258 289.966 545.093 289.966 544.922C289.966 544.75 289.899 544.585 289.78 544.464C289.661 544.342 289.5 544.274 289.331 544.274H267.308Z" fill="#537EC5"/>
<path d="M267.308 548.104C267.14 548.103 266.978 548.171 266.859 548.292C266.74 548.413 266.672 548.578 266.672 548.75C266.672 548.921 266.738 549.086 266.857 549.208C266.976 549.33 267.137 549.398 267.306 549.399H272.262C272.43 549.399 272.592 549.33 272.711 549.209C272.83 549.088 272.897 548.923 272.897 548.751C272.897 548.579 272.83 548.415 272.711 548.293C272.592 548.172 272.43 548.104 272.262 548.104H267.308Z" fill="#537EC5"/>
<path d="M327.166 568.207H262V521H327.166V568.207ZM263.071 567.115H326.095V522.092H263.071V567.115Z" fill="#E5E5E5"/>
<path d="M306.661 557.834C306.358 557.834 306.068 557.956 305.853 558.174C305.639 558.392 305.518 558.688 305.517 558.997C305.517 559.305 305.636 559.602 305.85 559.821C306.064 560.04 306.354 560.163 306.656 560.164H317.562C317.712 560.164 317.861 560.134 318 560.076C318.138 560.017 318.264 559.931 318.371 559.823C318.477 559.715 318.561 559.587 318.618 559.445C318.676 559.304 318.705 559.152 318.705 558.999C318.705 558.846 318.676 558.695 318.618 558.553C318.561 558.412 318.477 558.283 318.371 558.175C318.264 558.067 318.138 557.981 318 557.923C317.861 557.864 317.712 557.834 317.562 557.834H306.661Z" fill="#E4E4E4"/>
<path d="M306.661 543.729C306.358 543.729 306.068 543.851 305.853 544.069C305.639 544.287 305.518 544.582 305.517 544.891C305.517 545.2 305.636 545.496 305.85 545.715C306.064 545.934 306.354 546.058 306.656 546.058H317.562C317.712 546.059 317.861 546.029 318 545.97C318.138 545.912 318.264 545.826 318.371 545.718C318.477 545.61 318.561 545.481 318.618 545.34C318.676 545.198 318.705 545.047 318.705 544.894C318.705 544.741 318.676 544.589 318.618 544.448C318.561 544.306 318.477 544.178 318.371 544.07C318.264 543.962 318.138 543.876 318 543.817C317.861 543.759 317.712 543.729 317.562 543.729H306.661Z" fill="#E4E4E4"/>
<path d="M267.308 558.374C267.225 558.374 267.142 558.39 267.065 558.423C266.988 558.455 266.918 558.502 266.859 558.562C266.8 558.622 266.753 558.694 266.721 558.772C266.689 558.851 266.672 558.935 266.672 559.02C266.672 559.105 266.688 559.189 266.72 559.268C266.752 559.346 266.798 559.418 266.857 559.478C266.916 559.538 266.986 559.586 267.063 559.619C267.14 559.652 267.222 559.669 267.306 559.669H289.331C289.5 559.669 289.661 559.601 289.78 559.479C289.899 559.358 289.966 559.193 289.966 559.021C289.966 558.85 289.899 558.685 289.78 558.563C289.661 558.442 289.5 558.374 289.331 558.374H267.308Z" fill="#E4E4E4"/>
<path d="M267.308 562.203C267.225 562.203 267.142 562.22 267.065 562.252C266.988 562.285 266.918 562.332 266.859 562.392C266.8 562.452 266.753 562.523 266.721 562.602C266.689 562.68 266.672 562.764 266.672 562.85C266.672 562.935 266.688 563.019 266.72 563.097C266.752 563.176 266.798 563.248 266.857 563.308C266.916 563.368 266.986 563.416 267.063 563.449C267.14 563.481 267.222 563.498 267.306 563.498H272.262C272.43 563.498 272.592 563.43 272.711 563.309C272.83 563.187 272.897 563.023 272.897 562.851C272.897 562.679 272.83 562.514 272.711 562.393C272.592 562.272 272.43 562.203 272.262 562.203H267.308Z" fill="#E4E4E4"/>
<path d="M267.308 554.489C267.14 554.489 266.978 554.557 266.859 554.678C266.74 554.8 266.673 554.964 266.673 555.136C266.673 555.308 266.74 555.473 266.859 555.594C266.978 555.715 267.14 555.784 267.308 555.784H289.315C289.483 555.783 289.644 555.715 289.763 555.594C289.882 555.472 289.949 555.308 289.949 555.136C289.949 554.965 289.882 554.8 289.763 554.679C289.644 554.557 289.483 554.489 289.315 554.489H267.308Z" fill="#E4E4E4"/>
<path d="M267.308 526.289C267.14 526.289 266.978 526.357 266.859 526.479C266.74 526.6 266.673 526.765 266.673 526.937C266.673 527.108 266.74 527.273 266.859 527.394C266.978 527.516 267.14 527.584 267.308 527.584H289.315C289.483 527.584 289.644 527.515 289.763 527.394C289.882 527.273 289.949 527.108 289.949 526.937C289.949 526.765 289.882 526.6 289.763 526.479C289.644 526.358 289.483 526.289 289.315 526.289H267.308Z" fill="#E4E4E4"/>
<path d="M267.308 530.174C267.225 530.174 267.142 530.191 267.065 530.223C266.988 530.255 266.918 530.303 266.859 530.363C266.8 530.423 266.753 530.494 266.721 530.573C266.689 530.651 266.672 530.735 266.672 530.82C266.672 530.905 266.688 530.99 266.72 531.068C266.752 531.147 266.798 531.218 266.857 531.279C266.916 531.339 266.986 531.387 267.063 531.419C267.14 531.452 267.222 531.469 267.306 531.469H289.331C289.415 531.469 289.497 531.452 289.574 531.42C289.651 531.387 289.721 531.34 289.78 531.28C289.839 531.219 289.886 531.148 289.918 531.069C289.95 530.991 289.966 530.907 289.966 530.822C289.966 530.737 289.95 530.652 289.918 530.574C289.886 530.495 289.839 530.424 289.78 530.364C289.721 530.304 289.651 530.256 289.574 530.223C289.497 530.191 289.415 530.174 289.331 530.174H267.308Z" fill="#E4E4E4"/>
<path d="M267.308 534.004C267.14 534.003 266.978 534.071 266.859 534.192C266.74 534.314 266.672 534.478 266.672 534.65C266.672 534.822 266.738 534.986 266.857 535.108C266.976 535.23 267.137 535.298 267.306 535.299H272.262C272.43 535.299 272.592 535.231 272.711 535.109C272.83 534.988 272.897 534.823 272.897 534.651C272.897 534.48 272.83 534.315 272.711 534.193C272.592 534.072 272.43 534.004 272.262 534.004H267.308Z" fill="#E4E4E4"/>
<path d="M306.661 529.635C306.358 529.634 306.068 529.756 305.853 529.974C305.639 530.192 305.518 530.488 305.517 530.797C305.517 531.106 305.636 531.402 305.85 531.621C306.064 531.84 306.354 531.963 306.656 531.964H317.562C317.712 531.964 317.861 531.934 318 531.876C318.138 531.817 318.264 531.732 318.371 531.623C318.477 531.515 318.561 531.387 318.618 531.245C318.676 531.104 318.705 530.953 318.705 530.799C318.705 530.646 318.676 530.495 318.618 530.353C318.561 530.212 318.477 530.084 318.371 529.975C318.264 529.867 318.138 529.781 318 529.723C317.861 529.665 317.712 529.635 317.562 529.635H306.661Z" fill="#E4E4E4"/>
<path d="M308.959 532.877C310.09 532.877 311.007 531.942 311.007 530.788C311.007 529.635 310.09 528.7 308.959 528.7C307.827 528.7 306.91 529.635 306.91 530.788C306.91 531.942 307.827 532.877 308.959 532.877Z" fill="#CACACA"/>
<path d="M312.539 545.399C312.516 545.567 312.53 545.737 312.579 545.899C312.628 546.061 312.711 546.21 312.822 546.335C312.934 546.46 313.071 546.559 313.224 546.625C313.377 546.69 313.542 546.721 313.708 546.714L314.796 549.116L316.389 548.798L314.806 545.428C314.776 545.145 314.646 544.882 314.439 544.69C314.233 544.498 313.964 544.39 313.685 544.387C313.405 544.383 313.134 544.484 312.923 544.671C312.712 544.857 312.575 545.116 312.539 545.399V545.399Z" fill="#FFB6B6"/>
<path d="M323.558 554.49L319.12 552.251L315.988 546.831L313.799 547.91L316.64 554.172L323.816 558.397L323.558 554.49Z" fill="#3F3D56"/>
<path d="M313.538 586.532L312.143 586.532L311.479 582.43L313.539 582.43L313.538 586.532Z" fill="#FFB6B6"/>
<path d="M313.894 587.911L309.396 587.911V587.853C309.396 587.379 309.58 586.925 309.909 586.59C310.237 586.255 310.682 586.067 311.147 586.067H311.147L313.894 586.067L313.894 587.911Z" fill="#2F2E41"/>
<path d="M327.464 583.922L326.491 584.941L323.146 582.564L324.583 581.06L327.464 583.922Z" fill="#FFB6B6"/>
<path d="M328.681 584.625L325.542 587.911L325.502 587.87C325.169 587.54 324.979 587.088 324.972 586.615C324.966 586.141 325.145 585.685 325.469 585.345L325.469 585.345L327.386 583.338L328.681 584.625Z" fill="#2F2E41"/>
<path d="M315.263 562.119H314.298C311.79 564.914 309.875 568.208 308.674 571.794L307.521 575.236L311.63 584.008L314.193 584.054L311.263 574.741L314.215 570.749L314.364 578.774L323.865 583.853L325.766 580.988L318.035 576.677L319.352 569.851C319.352 569.851 322.001 567.598 320.458 564.076L315.263 562.119Z" fill="#2F2E41"/>
<path d="M327.962 553.186L323.953 551.395L319.54 553.389C319.54 553.389 318.29 554.114 319.086 555.971L314.298 562.119C314.298 562.119 314.307 562.121 320.325 564.077L325.754 559.201C326.578 558.46 327.211 557.524 327.596 556.475C327.982 555.426 328.107 554.296 327.962 553.186V553.186Z" fill="#3F3D56"/>
<path d="M327.289 551.342C328.833 551.342 330.084 550.066 330.084 548.492C330.084 546.917 328.833 545.641 327.289 545.641C325.746 545.641 324.495 546.917 324.495 548.492C324.495 550.066 325.746 551.342 327.289 551.342Z" fill="#FFB6B6"/>
<path d="M330.909 544.709C330.268 544.177 329.273 544.061 328.611 544.566C327.456 543.948 325.895 544.27 325.067 545.298C324.769 545.668 324.558 546.168 324.705 546.623C324.853 547.077 325.489 547.344 325.82 547.005L325.814 547.145C326.112 547.45 326.319 547.835 326.41 548.256C326.502 548.676 326.473 549.115 326.328 549.519C326.183 549.924 325.928 550.278 325.593 550.54C325.257 550.802 324.856 550.96 324.435 550.997C325.351 551.375 326.267 551.752 327.182 552.129C327.568 552.288 327.965 552.449 328.381 552.447C328.797 552.445 329.24 552.239 329.401 551.849C329.517 552.211 329.633 552.573 329.749 552.936C330.431 551.828 330.993 550.648 331.423 549.415C331.7 548.621 331.925 547.79 331.895 546.947C331.865 546.105 331.55 545.241 330.909 544.709Z" fill="#2F2E41"/>
<path d="M308.959 561.077C310.09 561.077 311.007 560.142 311.007 558.988C311.007 557.834 310.09 556.899 308.959 556.899C307.827 556.899 306.91 557.834 306.91 558.988C306.91 560.142 307.827 561.077 308.959 561.077Z" fill="#CACACA"/>
<path d="M315.331 546.983C316.462 546.983 317.38 546.047 317.38 544.894C317.38 543.74 316.462 542.805 315.331 542.805C314.2 542.805 313.283 543.74 313.283 544.894C313.283 546.047 314.2 546.983 315.331 546.983Z" fill="#537EC5"/>
<path d="M315.384 544.238C315.361 544.406 315.374 544.577 315.423 544.738C315.472 544.9 315.556 545.049 315.667 545.174C315.779 545.3 315.916 545.399 316.069 545.464C316.222 545.53 316.387 545.56 316.553 545.554L317.641 547.956L319.233 547.638L317.651 544.267C317.621 543.984 317.491 543.722 317.284 543.53C317.078 543.338 316.809 543.23 316.53 543.226C316.25 543.222 315.979 543.324 315.768 543.51C315.557 543.697 315.42 543.956 315.384 544.238V544.238Z" fill="#FFB6B6"/>
<path d="M326.402 553.329L321.964 551.09L318.833 545.67L316.644 546.75L319.485 553.012L326.661 557.236L326.402 553.329Z" fill="#3F3D56"/>
<path d="M338.886 588H295.53C295.5 588 295.471 587.988 295.45 587.966C295.429 587.944 295.417 587.915 295.417 587.884C295.417 587.853 295.429 587.824 295.45 587.802C295.471 587.78 295.5 587.768 295.53 587.768H338.886C338.916 587.768 338.945 587.78 338.967 587.802C338.988 587.824 339 587.853 339 587.884C339 587.915 338.988 587.944 338.967 587.966C338.945 587.988 338.916 588 338.886 588Z" fill="#CACACA"/>
</g>
<path d="M389.594 135.241H393.413C407.846 135.245 421.686 141.608 431.891 152.932C442.095 164.256 447.827 179.612 447.827 195.625V310.821H335.149V195.625C335.149 187.693 336.558 179.84 339.294 172.512C342.03 165.185 346.041 158.528 351.097 152.92C356.153 147.313 362.155 142.865 368.76 139.832C375.365 136.798 382.445 135.238 389.594 135.241Z" fill="#FFB7D5"/>
<path d="M411.946 241.478V312.614H361.948V241.478H411.946ZM413.271 240.008H360.623V314.084H413.271V240.008Z" fill="#CA7358"/>
<path d="M413.271 240.004H360.623V255.318H413.271V240.004Z" fill="#CA7358"/>
<path d="M360.341 203.011V312.971H330.247V203.011H360.341ZM361.666 201.541H328.922V314.441H361.666V201.541Z" fill="#CA7358"/>
<path d="M453.277 180.752V312.614H413.553V180.752H453.277ZM454.602 179.282H412.228V314.084H454.602V179.282Z" fill="#CA7358"/>
<path d="M429.453 197.267H429.834C431.273 197.267 432.653 197.901 433.671 199.03C434.688 200.159 435.26 201.69 435.26 203.287V216.855H424.024V203.287C424.024 202.496 424.164 201.713 424.437 200.982C424.71 200.252 425.11 199.588 425.614 199.029C426.118 198.47 426.717 198.027 427.376 197.724C428.034 197.422 428.74 197.267 429.453 197.267Z" fill="#CA7358"/>
<path d="M422.742 207.95H436.545" stroke="#FFB7D5" stroke-width="4" stroke-linecap="round" stroke-linejoin="round"/>
<path d="M429.453 232.408H429.834C431.273 232.408 432.653 233.042 433.671 234.171C434.688 235.3 435.26 236.831 435.26 238.427V251.995H424.024V238.427C424.024 237.636 424.164 236.853 424.437 236.123C424.71 235.392 425.11 234.728 425.614 234.169C426.118 233.61 426.717 233.167 427.376 232.865C428.034 232.562 428.74 232.407 429.453 232.408Z" fill="#F5EBDD"/>
<path d="M422.742 243.091H436.545" stroke="#FFB7D5" stroke-width="4" stroke-linecap="round" stroke-linejoin="round"/>
<path d="M429.453 267.548H429.834C431.273 267.548 432.653 268.182 433.671 269.311C434.688 270.44 435.26 271.971 435.26 273.568V287.136H424.024V273.568C424.024 271.971 424.596 270.44 425.613 269.311C426.631 268.182 428.011 267.548 429.45 267.548H429.453Z" fill="#F5EBDD"/>
<path d="M422.742 278.231H436.545" stroke="#FFB7D5" stroke-width="4" stroke-linecap="round" stroke-linejoin="round"/>
<path d="M429.453 302.688H429.834C431.273 302.688 432.653 303.323 433.671 304.451C434.688 305.58 435.26 307.111 435.26 308.708V321.174H424.024V308.708C424.024 307.917 424.164 307.134 424.437 306.403C424.71 305.673 425.11 305.009 425.614 304.45C426.118 303.891 426.717 303.448 427.376 303.145C428.034 302.843 428.74 302.688 429.453 302.688Z" fill="#30242A"/>
<path d="M454.602 179.282H412.228V185.158H454.602V179.282Z" fill="#CA7358"/>
<path d="M361.666 198.693H328.922V204.569H361.666V198.693Z" fill="#CA7358"/>
<path d="M381.329 269.209H370.093V285.236H381.329V269.209Z" fill="#F5EBDD"/>
<path d="M368.808 276.331H382.614" stroke="#FFB7D5" stroke-width="4" stroke-linecap="round" stroke-linejoin="round"/>
<path d="M375.711 285.949V276.331" stroke="#FFB7D5" stroke-width="4" stroke-linecap="round" stroke-linejoin="round"/>
<path d="M381.329 298.153H370.093V314.18H381.329V298.153Z" fill="#CA7358"/>
<path d="M368.808 305.276H382.614" stroke="#FFB7D5" stroke-width="4" stroke-linecap="round" stroke-linejoin="round"/>
<path d="M375.711 314.893V305.276" stroke="#FFB7D5" stroke-width="4" stroke-linecap="round" stroke-linejoin="round"/>
<path d="M402.516 269.209H391.28V285.236H402.516V269.209Z" fill="#30242A"/>
<path d="M389.998 276.331H403.801" stroke="#FFB7D5" stroke-width="4" stroke-linecap="round" stroke-linejoin="round"/>
<path d="M396.898 285.949V276.331" stroke="#FFB7D5" stroke-width="4" stroke-linecap="round" stroke-linejoin="round"/>
<path d="M402.516 298.153H391.28V314.18H402.516V298.153Z" fill="#F5EBDD"/>
<path d="M389.998 305.276H403.801" stroke="#FFB7D5" stroke-width="4" stroke-linecap="round" stroke-linejoin="round"/>
<path d="M396.898 314.893V305.276" stroke="#FFB7D5" stroke-width="4" stroke-linecap="round" stroke-linejoin="round"/>
<path d="M368.086 178.749C372.696 178.749 376.433 174.603 376.433 169.488C376.433 164.373 372.696 160.227 368.086 160.227C363.475 160.227 359.738 164.373 359.738 169.488C359.738 174.603 363.475 178.749 368.086 178.749Z" fill="#F5EBDD"/>
<path d="M462.273 310.88H320.704V321.563H462.273V310.88Z" fill="#F5EBDD"/>
<path d="M393.724 124.612H389.262C354.064 124.612 325.53 156.269 325.53 195.319V321.563H457.47V195.319C457.46 156.269 428.923 124.612 393.724 124.612ZM386.675 310.88H335.149V221.842H386.675V310.88ZM386.675 211.159H335.149V195.683C335.15 180.226 340.493 165.357 350.079 154.139C359.664 142.922 372.763 136.209 386.675 135.384V211.159ZM447.827 310.88H396.305V221.842H447.827V310.88ZM447.827 211.159H396.305V135.384C410.217 136.209 423.315 142.922 432.9 154.14C442.485 165.357 447.828 180.226 447.827 195.683V211.159Z" fill="#F5EBDD"/>
<path d="M216.887 462.242C223.978 462.242 229.726 455.865 229.726 447.998C229.726 440.131 223.978 433.753 216.887 433.753C209.796 433.753 204.047 440.131 204.047 447.998C204.047 455.865 209.796 462.242 216.887 462.242Z" fill="#FFB7D5"/>
<path d="M503.229 331.882C503.231 332.276 503.159 332.665 503.017 333.025C502.023 335.535 497.777 335.907 493.553 333.852C490.015 332.136 487.611 329.262 487.508 326.899V358.24H503.239V331.882H503.229Z" fill="#FFBE21"/>
<path d="M497.18 324.771C492.957 322.717 488.717 323.088 487.717 325.598C487.556 326.01 487.484 326.458 487.508 326.907C487.611 329.27 490.015 332.143 493.553 333.86C497.777 335.914 502.017 335.543 503.017 333.033C503.159 332.672 503.231 332.283 503.229 331.89C503.239 329.497 500.804 326.528 497.18 324.771Z" fill="#A15842"/>
<path d="M515.29 342.22C515.187 344.583 512.782 347.457 509.245 349.177C505.018 351.228 500.781 350.86 499.777 348.346C499.637 347.987 499.565 347.599 499.565 347.207V358.232H515.293V342.22H515.29Z" fill="#FFBE21"/>
<path d="M515.081 340.912C514.087 338.402 509.841 338.031 505.614 340.085C501.994 341.845 499.559 344.811 499.565 347.207C499.565 347.599 499.637 347.987 499.777 348.346C500.771 350.86 505.018 351.228 509.245 349.177C512.782 347.457 515.187 344.583 515.29 342.22C515.314 341.772 515.242 341.324 515.081 340.912Z" fill="#A15842"/>
<path d="M500.026 358.247V347.564" stroke="#A15842" stroke-width="4" stroke-miterlimit="10" stroke-linecap="round"/>
<path d="M495.372 322.452V328.509" stroke="#30242A" stroke-width="4" stroke-linecap="round" stroke-linejoin="round"/>
<path d="M507.429 337.77V344.179" stroke="#30242A" stroke-width="4" stroke-linecap="round" stroke-linejoin="round"/>
<path d="M428.019 462.345C427.617 462.345 427.221 462.24 426.864 462.037C426.506 461.835 426.197 461.541 425.961 461.18C425.726 460.819 425.571 460.402 425.509 459.961C425.448 459.521 425.481 459.071 425.607 458.648L433.557 431.769C433.725 431.205 434.049 430.715 434.482 430.367C434.916 430.02 435.437 429.832 435.972 429.832H441.544C441.986 429.832 442.421 429.96 442.806 430.204C443.19 430.448 443.51 430.799 443.734 431.223C443.958 431.646 444.078 432.127 444.083 432.618C444.087 433.109 443.976 433.593 443.76 434.022L430.225 460.901C430.006 461.337 429.686 461.701 429.298 461.955C428.911 462.209 428.469 462.343 428.019 462.345Z" fill="#30242A"/>
<path d="M534.522 462.345C534.924 462.345 535.32 462.24 535.677 462.037C536.035 461.835 536.344 461.541 536.58 461.18C536.815 460.819 536.97 460.402 537.032 459.961C537.093 459.521 537.06 459.071 536.934 458.648L528.984 431.769C528.816 431.206 528.493 430.716 528.06 430.368C527.627 430.021 527.107 429.833 526.572 429.832H520.997C520.555 429.833 520.121 429.962 519.737 430.206C519.353 430.45 519.034 430.801 518.81 431.224C518.586 431.648 518.466 432.128 518.461 432.619C518.456 433.109 518.566 433.593 518.781 434.022L532.316 460.901C532.536 461.337 532.855 461.7 533.243 461.954C533.631 462.208 534.072 462.343 534.522 462.345Z" fill="#30242A"/>
<path d="M546.815 358.247H416.16V441.228H546.815V358.247Z" fill="#A15842"/>
<path d="M537.182 368.93H425.789V430.545H537.182V368.93Z" fill="#FFB7D5"/>
<path d="M481.367 367.864V431.615" stroke="#A15842" stroke-width="4" stroke-miterlimit="10"/>
<path d="M494.494 403.471C496.353 403.471 497.859 401.8 497.859 399.738C497.859 397.676 496.353 396.004 494.494 396.004C492.635 396.004 491.129 397.676 491.129 399.738C491.129 401.8 492.635 403.471 494.494 403.471Z" fill="#30242A"/>
<path d="M468.478 403.471C470.336 403.471 471.843 401.8 471.843 399.738C471.843 397.676 470.336 396.004 468.478 396.004C466.619 396.004 465.112 397.676 465.112 399.738C465.112 401.8 466.619 403.471 468.478 403.471Z" fill="#30242A"/>
<path d="M255.696 427.8V433.853H302.886V427.8H255.696Z" fill="#A15842"/>
<path d="M310.66 459.214L298.97 381.396H306.119C306.885 381.396 307.619 381.058 308.161 380.457C308.703 379.856 309.007 379.041 309.007 378.191C309.007 377.341 308.703 376.526 308.161 375.925C307.619 375.324 306.885 374.987 306.119 374.987H252.519C251.753 374.987 251.018 375.324 250.477 375.925C249.935 376.526 249.631 377.341 249.631 378.191C249.631 379.041 249.935 379.856 250.477 380.457C251.018 381.058 251.753 381.396 252.519 381.396H259.611L247.921 459.214C247.864 459.599 247.882 459.994 247.976 460.37C248.07 460.747 248.236 461.096 248.463 461.394C248.691 461.692 248.974 461.931 249.294 462.096C249.613 462.26 249.961 462.345 250.313 462.345C250.866 462.346 251.403 462.136 251.834 461.751C252.265 461.365 252.564 460.828 252.681 460.228L268.171 381.396H290.411L305.897 460.228C306.015 460.828 306.315 461.365 306.747 461.75C307.178 462.135 307.715 462.345 308.269 462.345C308.621 462.345 308.968 462.26 309.288 462.096C309.607 461.931 309.89 461.692 310.118 461.394C310.346 461.096 310.512 460.747 310.606 460.37C310.699 459.994 310.718 459.599 310.66 459.214Z" fill="#FFBE21"/>
<path d="M306.119 381.396C306.885 381.396 307.62 381.058 308.161 380.457C308.703 379.856 309.007 379.041 309.007 378.191C309.007 377.341 308.703 376.526 308.161 375.925C307.62 375.324 306.885 374.987 306.119 374.987H252.519C251.753 374.987 251.018 375.324 250.477 375.925C249.935 376.526 249.631 377.341 249.631 378.191C249.631 379.041 249.935 379.856 250.477 380.457C251.018 381.058 251.753 381.396 252.519 381.396H259.611V381.495H268.164L268.184 381.396H290.424L290.444 381.495H298.997V381.396H306.119Z" fill="#A15842"/>
<path d="M309.295 427.697H343.414C343.838 419.66 345.352 408.999 346.607 394.596C347.724 381.826 348.684 371.106 348.621 362.256C348.515 347.505 314.503 365.358 314.503 365.358C314.503 368.581 315.089 371.675 315.106 374.674C315.145 382.465 311.588 389.095 309.047 398.492C305.195 412.74 308.404 427.697 308.404 427.697H309.295Z" fill="#4856DF"/>
<path d="M345.233 458.325H315.364C314.949 458.471 314.596 458.777 314.366 459.188C314.137 459.598 314.048 460.086 314.114 460.563C314.18 461.04 314.398 461.475 314.728 461.79C315.058 462.104 315.479 462.278 315.914 462.279L359.867 462.345C360.255 457.604 357.827 454.036 350.977 448.747C347.068 452.507 345.233 458.325 345.233 458.325Z" fill="#3EC1F3"/>
<path d="M349.436 447.597C348.018 446.58 346.792 445.264 345.829 443.724C343.51 439.949 343.02 434.867 343.401 427.697H313.834C313.891 433.058 314.239 438.41 314.877 443.724C315.632 449.74 316.653 453.878 317.471 458.229H315.917C315.729 458.229 315.543 458.261 315.364 458.325H345.233C345.233 458.325 347.068 452.507 350.977 448.769C350.486 448.385 349.973 447.994 349.436 447.597Z" fill="#A15842"/>
<path d="M343.759 421.259C341.93 417.22 340.684 412.889 340.065 408.422C337.902 391.748 339.184 383.2 333.086 375.714H315.241" stroke="#30242A" stroke-width="4" stroke-linecap="round" stroke-linejoin="round"/>
<path d="M354.885 429.119L354.918 429.208L381.26 415.522C379.209 408.716 377.066 399.66 373.545 387.809C370.245 376.717 368.062 368.43 365.995 362.017C363.105 364.328 359.54 365.355 356.001 364.899C352.462 364.443 349.205 362.536 346.869 359.552C344.532 356.568 343.286 352.723 343.373 348.772C343.461 344.821 344.877 341.049 347.343 338.196C333.281 331.147 283.339 326.55 283.339 326.55L255.086 321.92C253.596 324.654 252.327 328.987 251.638 334.047H261.509V345.759C261.504 348.128 260.653 350.397 259.142 352.07C257.632 353.743 255.585 354.684 253.45 354.686H252.887C252.754 354.686 252.622 354.686 252.493 354.686C255.189 365.711 262.125 374.998 276.283 374.998H333.424C339.522 382.476 338.24 391.024 340.403 407.705C342.172 421.35 350.556 431.409 350.556 431.409L354.885 429.119Z" fill="#4856DF"/>
<path d="M395.013 444.793L368.778 457.994C368.334 458.338 368.022 458.855 367.906 459.443C367.789 460.03 367.876 460.644 368.149 461.164C368.422 461.683 368.86 462.07 369.378 462.247C369.896 462.425 370.455 462.38 370.944 462.121L410.754 441.541C409.194 436.763 405.182 434.926 395.679 433.088L395.271 433.004C394.484 436.876 394.396 440.883 395.013 444.793Z" fill="#3EC1F3"/>
<path d="M395.271 432.989C392.535 432.408 390.389 431.398 388.617 429.869C385.35 427.047 383.35 422.453 381.259 415.536L354.918 429.222C357.151 434.915 360.285 440.901 363.269 446.127C365.876 450.677 368.364 454.642 370.037 457.299L369.086 457.81C368.978 457.869 368.875 457.937 368.778 458.016L395.013 444.815C394.392 440.893 394.479 436.873 395.271 432.989Z" fill="#A15842"/>
<path d="M357.655 365.013C360.65 365.015 363.569 363.966 365.996 362.018C361.885 349.199 358.32 343.859 347.542 338.295L347.343 338.196C345.405 340.438 344.104 343.262 343.601 346.317C343.098 349.372 343.416 352.524 344.515 355.381C345.614 358.237 347.445 360.672 349.781 362.384C352.117 364.095 354.855 365.006 357.655 365.005V365.013Z" fill="#3EC1F3"/>
<path d="M253.45 354.686C255.589 354.686 257.64 353.744 259.152 352.066C260.665 350.389 261.515 348.114 261.516 345.741V334.029H251.645C250.773 340.383 250.823 347.858 252.493 354.675C252.622 354.675 252.754 354.675 252.887 354.675L253.45 354.686Z" fill="#3EC1F3"/>
<path d="M332.937 375.876H342.566" stroke="#30242A" stroke-width="4" stroke-linecap="round" stroke-linejoin="round"/>
<path d="M374.356 262.62C374.356 262.62 357.022 240.54 336.541 232.533" stroke="#30242A" stroke-width="4" stroke-linecap="round" stroke-linejoin="round"/>
<path d="M319.985 241.158C319.355 239.471 321.456 236.825 324.954 234.591C320.217 233.282 316.851 230.846 317.189 228.799C317.527 226.752 321.449 225.789 326.298 226.421C323.748 222.967 322.625 219.666 323.751 218.336C325.185 216.635 329.737 218.781 333.914 223.114C337.558 226.899 339.711 231.11 339.254 233.253C338.999 235.436 335.643 238.53 331.032 240.647C325.729 243.087 320.79 243.315 319.985 241.158Z" fill="#4756DF"/>
<path d="M339.426 240.11C342.766 240.11 345.475 237.106 345.475 233.4C345.475 229.694 342.766 226.689 339.426 226.689C336.085 226.689 333.377 229.694 333.377 233.4C333.377 237.106 336.085 240.11 339.426 240.11Z" fill="#30242A"/>
<path d="M352.17 242.042C353.832 241.358 353.077 234.52 350.483 226.771C347.889 219.021 344.44 213.293 342.778 213.978C341.116 214.663 341.871 221.5 344.465 229.25C347.059 237 350.508 242.727 352.17 242.042Z" fill="#30242A"/>
<path d="M351.874 243.388C351.874 243.388 354.445 251.224 353.16 259.415" stroke="#30242A" stroke-width="4" stroke-linecap="round" stroke-linejoin="round"/>
<path d="M304.999 212.18C299.52 219.02 293.697 220.53 293.697 220.53C289.931 215.973 283.097 215.973 282.053 222.43C280.917 229.585 288.894 231.555 288.894 231.555C288.894 231.555 290.904 240.787 287.82 245.347C285.098 249.39 281.6 250.055 274.431 250.944C283.773 268.456 293.313 267.074 296.489 267.074C304.108 267.074 306.255 257.265 306.854 252.208C305.119 251.537 303.349 250.984 301.554 250.551L300.527 243.716C300.527 243.716 305.32 245.612 309.431 242.955C313.542 240.298 314.569 235.355 313.198 227.759C312.386 223.257 312.416 217.689 311.72 212.713C309.007 213.224 304.999 212.18 304.999 212.18Z" fill="#A15842"/>
<path d="M361.987 250.334C360.533 243.877 349.148 240.375 349.148 240.375C349.148 240.375 349.83 225.881 346.899 225.418C344.653 225.05 342.404 231.118 340.479 242.87C338.326 256.005 339.515 280.263 339.515 280.263C339.515 280.263 337.134 277.864 333.755 274.523C333.417 275.28 332.899 275.92 332.257 276.374C331.615 276.827 330.872 277.077 330.111 277.096C330.592 277.771 330.893 278.582 330.98 279.437C331.068 280.292 330.939 281.157 330.607 281.935C330.276 282.713 329.755 283.373 329.104 283.841C328.453 284.308 327.697 284.565 326.921 284.582C327.402 285.257 327.703 286.068 327.79 286.923C327.878 287.778 327.749 288.643 327.417 289.421C327.086 290.199 326.565 290.859 325.914 291.327C325.263 291.794 324.507 292.051 323.731 292.068C324.235 292.777 324.541 293.634 324.611 294.534C324.681 295.434 324.512 296.337 324.124 297.131C323.736 297.926 323.148 298.577 322.43 299.004C321.713 299.431 320.898 299.616 320.088 299.535C327.12 304.614 336.68 310.538 343.05 310.538C376.433 310.523 362.951 254.608 361.987 250.334Z" fill="#A15842"/>
<path d="M324.215 296.893C324.546 296.115 324.675 295.25 324.588 294.395C324.501 293.54 324.201 292.729 323.721 292.053C324.497 292.036 325.253 291.779 325.904 291.312C326.555 290.844 327.076 290.184 327.407 289.406C327.739 288.629 327.868 287.763 327.78 286.908C327.693 286.053 327.392 285.242 326.911 284.567C327.687 284.55 328.443 284.293 329.094 283.826C329.745 283.358 330.266 282.698 330.597 281.921C330.929 281.143 331.058 280.277 330.97 279.422C330.883 278.567 330.582 277.756 330.101 277.081C330.862 277.062 331.605 276.813 332.247 276.359C332.889 275.906 333.407 275.266 333.745 274.508C327.922 268.753 319.14 260.22 314.466 256.387C312.204 254.531 309.322 253.157 306.847 252.208C306.264 257.28 304.131 267.074 296.512 267.074C293.349 267.074 283.796 268.456 274.455 250.944L271.453 251.312C261.118 252.587 256.415 258.757 253.645 266.129C251.933 270.69 250.561 279.047 250.561 279.047C249.499 286.709 248.952 294.448 248.925 302.199L262.364 315.999L298.444 316.988C301.332 312.262 306.632 303.534 308.381 300.186C310.627 295.912 310.948 292.35 310.948 292.35C310.948 292.35 314.804 295.695 320.088 299.513C320.934 299.595 321.783 299.389 322.521 298.92C323.259 298.452 323.85 297.744 324.215 296.893Z" fill="#FFBE21"/>
<path d="M308.769 203.82C304.661 198.124 293.359 194.324 284.455 201.541C275.551 208.759 276.237 220.537 276.578 225.098C276.578 225.098 266.991 221.677 260.141 229.655C258.159 231.936 256.715 234.725 255.938 237.774C255.162 240.824 255.076 244.039 255.689 247.133C255.689 247.133 243.075 246.74 240.621 259.672C239.226 267.022 241.83 271.914 244.718 274.942C246.412 276.706 248.391 278.098 250.552 279.047C250.552 279.047 251.923 270.69 253.635 266.129C256.405 258.757 261.108 252.587 271.443 251.312L274.445 250.944C281.613 250.055 285.111 249.379 287.834 245.347C290.914 240.787 288.894 231.555 288.894 231.555C288.894 231.555 280.907 229.585 282.043 222.437C283.074 215.98 289.921 215.98 293.687 220.537C293.687 220.537 299.51 219.02 304.989 212.18C304.989 212.18 308.997 213.224 311.73 212.713C311.263 209.288 310.442 206.146 308.769 203.82Z" fill="#30242A"/>
<path d="M362.7 255.409C361.729 254.913 361.149 253.664 361.315 251.275C361.315 251.275 359.308 254.068 357.171 252.826C355.034 251.584 355.889 248.908 355.889 248.908C355.889 248.908 353.961 250.334 352.358 248.541C350.904 246.927 352.027 244.267 352.027 244.267C352.027 244.267 349.893 245.233 349.138 243.554C348.187 241.452 349.344 239.25 350.596 237.564" stroke="#30242A" stroke-width="8" stroke-linecap="round" stroke-linejoin="round"/>
<path d="M255.08 247.442C255.443 249.346 256.097 251.167 257.014 252.826" stroke="black" stroke-width="4" stroke-miterlimit="10" stroke-linecap="round"/>
<path d="M338.873 280.723L339.678 291.825" stroke="#30242A" stroke-width="4" stroke-linecap="round" stroke-linejoin="round"/>
<path d="M309.822 280.065C311.919 284.255 311.892 289.282 311.621 292.262" stroke="#30242A" stroke-width="4" stroke-linecap="round" stroke-linejoin="round"/>
<path d="M290.881 291.825L280.609 292.181" stroke="#30242A" stroke-width="4" stroke-linecap="round" stroke-linejoin="round"/>
<path d="M300.352 244.417C298.916 243.792 297.516 243.072 296.158 242.26" stroke="#30242A" stroke-width="4" stroke-linecap="round" stroke-linejoin="round"/>
<path d="M302.919 254.965L302.359 251.029" stroke="#30242A" stroke-width="4" stroke-linecap="round" stroke-linejoin="round"/>
<path d="M275.886 225.241L276.598 231.812" stroke="black" stroke-width="4" stroke-miterlimit="10" stroke-linecap="round"/>
<path d="M309.822 233.062C309.097 233.584 306.692 233.756 305.539 231.43" stroke="#30242A" stroke-width="4" stroke-linecap="round" stroke-linejoin="round"/>
<path d="M290.56 225.579L287.35 223.801" stroke="#30242A" stroke-width="4" stroke-linecap="round" stroke-linejoin="round"/>
<path d="M305.38 224.003C304.867 224.778 302.445 226.281 300.623 224.565" stroke="#30242A" stroke-width="4" stroke-linecap="round" stroke-linejoin="round"/>
<path d="M313.181 222.882C312.798 222.972 312.402 222.978 312.016 222.899C311.631 222.819 311.264 222.656 310.935 222.419" stroke="#30242A" stroke-width="4" stroke-linecap="round" stroke-linejoin="round"/>
<path d="M308.838 224.205C309.206 225.127 309.56 226.145 309.484 226.535C309.371 227.009 309.117 227.426 308.762 227.718" stroke="#30242A" stroke-width="4" stroke-linecap="round" stroke-linejoin="round"/>
<path d="M288.801 229.883L284.419 234.469C284.181 234.717 284.005 235.029 283.907 235.374C283.81 235.719 283.793 236.086 283.86 236.441C283.926 236.795 284.073 237.124 284.287 237.397C284.501 237.671 284.774 237.878 285.081 238.001L290.262 240.041C290.57 240.161 290.9 240.192 291.222 240.131C291.544 240.069 291.846 239.917 292.1 239.689C292.354 239.46 292.55 239.164 292.671 238.827C292.792 238.49 292.832 238.125 292.789 237.766L291.991 231.151C291.944 230.766 291.803 230.403 291.583 230.102C291.363 229.8 291.073 229.571 290.744 229.441C290.414 229.31 290.059 229.282 289.716 229.36C289.374 229.438 289.057 229.619 288.801 229.883Z" fill="#F4E6D8"/>
<path d="M351.715 231.103C351.715 231.103 353.961 229.677 355.889 230.39C358.87 231.492 358.433 234.572 358.433 234.572C358.433 234.572 362.613 232.9 363.425 237.802C363.425 237.802 367.195 238.74 366.347 242.922C366.347 242.922 369.397 243.102 368.791 247.538C368.185 251.973 365.518 255.659 363.915 255.659C362.259 255.659 361.09 254.531 361.315 251.249C361.315 251.249 359.308 254.042 357.171 252.8C355.034 251.558 355.889 248.883 355.889 248.883C355.889 248.883 353.961 250.308 352.358 248.515C350.904 246.902 352.027 244.241 352.027 244.241C352.027 244.241 349.893 245.208 349.138 243.528C347.532 239.967 351.95 236.138 352.669 234.984L351.715 231.103Z" fill="#A15842"/>
<path d="M350.761 245.538C352.967 243.293 356.724 239.056 358.506 234.609" stroke="#30242A" stroke-width="4" stroke-linecap="round" stroke-linejoin="round"/>
<path d="M354.812 250.665C358.479 247.206 361.471 242.955 363.607 238.17" stroke="#30242A" stroke-width="4" stroke-linecap="round" stroke-linejoin="round"/>
<path d="M360.487 253.304C361.481 251.959 364.955 247.126 366.678 243.3" stroke="#30242A" stroke-width="4" stroke-linecap="round" stroke-linejoin="round"/>
<path d="M359.864 335.098H304.267L316.904 290.803C317.278 289.499 318.016 288.361 319.012 287.554C320.008 286.746 321.209 286.311 322.443 286.313H369.424C370.337 286.312 371.237 286.55 372.051 287.008C372.865 287.466 373.571 288.13 374.11 288.947C374.65 289.764 375.008 290.711 375.156 291.71C375.304 292.709 375.238 293.733 374.962 294.699L364.511 331.328C364.197 332.422 363.578 333.377 362.742 334.054C361.907 334.732 360.899 335.098 359.864 335.098Z" fill="#30242A"/>
<path d="M272 330.111C271.836 330.685 271.796 331.294 271.884 331.888C271.972 332.482 272.184 333.044 272.505 333.53C272.825 334.016 273.244 334.411 273.728 334.683C274.212 334.956 274.747 335.098 275.289 335.098H359.864C360.898 335.095 361.905 334.728 362.739 334.049C363.572 333.37 364.19 332.414 364.502 331.32L364.833 330.111H272Z" fill="#30242A"/>
<path d="M351.348 306.892C350.056 304.93 344.183 310.112 343.752 310.542C343.527 310.112 340.473 304.93 338.23 306.892C336.286 308.594 340.549 316.19 341.698 318.127C341.746 318.186 341.804 318.233 341.869 318.265C341.934 318.298 342.005 318.314 342.076 318.314C342.147 318.314 342.218 318.298 342.283 318.265C342.348 318.233 342.406 318.186 342.454 318.127C344.544 316.172 352.471 308.576 351.348 306.892Z" fill="#FFBE21"/>
<path d="M345.981 305.505C346.448 303.843 346.429 302.357 345.938 302.188C345.447 302.018 344.671 303.229 344.204 304.891C343.737 306.554 343.757 308.039 344.247 308.209C344.738 308.378 345.514 307.168 345.981 305.505Z" fill="#FFBE21"/>
<path d="M240.144 294.938C240.865 295.246 241.65 295.326 242.41 295.169C243.171 295.012 243.877 294.624 244.45 294.048C244.518 294.906 244.801 295.726 245.267 296.416C245.733 297.105 246.363 297.636 247.086 297.948C247.81 298.261 248.598 298.343 249.361 298.185C250.125 298.027 250.833 297.636 251.406 297.054C251.476 297.912 251.76 298.73 252.226 299.418C252.692 300.106 253.323 300.636 254.046 300.948C254.769 301.26 255.556 301.342 256.318 301.184C257.081 301.027 257.789 300.636 258.362 300.057C258.416 300.734 258.603 301.389 258.91 301.976C259.218 302.563 259.639 303.068 260.142 303.454C260.646 303.84 261.22 304.098 261.824 304.21C262.428 304.321 263.047 304.284 263.636 304.099L268.644 289.175C270.573 283.446 271.488 277.358 271.337 271.245L270.831 251.4C270.831 251.4 259.273 252.466 252.532 261.727C249.074 266.478 242.287 279.032 237.938 292.681C238.395 293.711 239.181 294.516 240.144 294.938Z" fill="#FFBE21"/>
<path d="M261.009 303.952C260.284 303.642 259.651 303.113 259.183 302.425C258.714 301.736 258.429 300.916 258.359 300.057C257.786 300.637 257.078 301.027 256.315 301.184C255.552 301.342 254.765 301.26 254.042 300.948C253.319 300.636 252.689 300.106 252.223 299.418C251.757 298.73 251.473 297.912 251.403 297.054C250.83 297.636 250.121 298.027 249.358 298.185C248.595 298.343 247.807 298.261 247.083 297.948C246.36 297.636 245.729 297.105 245.263 296.416C244.797 295.727 244.515 294.907 244.447 294.048C243.97 294.53 243.399 294.883 242.778 295.078C242.158 295.273 241.505 295.306 240.871 295.174C240.237 295.042 239.64 294.748 239.125 294.316C238.611 293.884 238.194 293.326 237.908 292.685C234.138 304.515 232.197 317.171 235.847 326.282C243.705 345.903 267.286 338.997 272.851 337.182C278.416 335.366 289.228 329.189 296.433 330.28C303.638 331.372 311.823 335.366 313.135 330.28C313.135 330.28 317.544 330.155 316.156 325.503C316.156 325.503 318.372 325.198 318.7 323.382C319.362 319.748 311.495 316.481 311.495 316.481C311.495 316.481 317.719 317.583 319.028 316.113C320.684 314.276 319.074 311.31 308.908 308.576C297.741 305.577 283.004 307.392 261.062 311.751L263.629 304.096C262.765 304.365 261.845 304.315 261.009 303.952Z" fill="#A15842"/>
<path d="M268.731 287.195L261.4 310.935" stroke="#30242A" stroke-width="4" stroke-linecap="round" stroke-linejoin="round"/>
<path d="M313.473 316.741C309.915 315.242 303.992 312.942 299.394 312.111" stroke="#30242A" stroke-width="4" stroke-linecap="round" stroke-linejoin="round"/>
<path d="M316.248 325.312C311.677 323.029 302.945 318.888 298.248 318.109" stroke="#30242A" stroke-width="4" stroke-linecap="round" stroke-linejoin="round"/>
<path d="M261.115 310.986C258.651 311.427 254.782 312.159 250.916 313.015" stroke="#30242A" stroke-width="4" stroke-linecap="round" stroke-linejoin="round"/>
<path d="M312.999 330.78C309.57 328.843 302.346 324.992 297.268 323.919" stroke="#30242A" stroke-width="4" stroke-linecap="round" stroke-linejoin="round"/>
<path d="M466.444 283.887C466.444 283.887 463.84 290.384 457.01 290.384C450.179 290.384 447.562 283.887 447.562 283.887C447.562 283.887 428.35 332.618 447.231 358.247H466.752C485.623 332.618 466.444 283.887 466.444 283.887Z" fill="#3EC1F3"/>
<path d="M456.993 290.384C463.824 290.384 466.427 283.887 466.427 283.887H447.546C447.546 283.887 450.159 290.384 456.993 290.384Z" fill="#30242A"/>
<path d="M474.639 327.27C464.019 327.48 451.451 331.736 441.779 346.748" stroke="#F5EBDD" stroke-width="4" stroke-linecap="round" stroke-linejoin="round"/>
<path d="M440.08 315.345C447.208 313.416 460.707 311.578 473.791 315.033" stroke="#F5EBDD" stroke-width="4" stroke-linecap="round" stroke-linejoin="round"/>
<path d="M473.731 339.78C468.981 339.843 460.2 345.814 461.167 357.85" stroke="#F5EBDD" stroke-width="4" stroke-linecap="round" stroke-linejoin="round"/>
<path d="M455.797 288.223C455.599 282.987 454.343 262.175 446.89 249.967" stroke="#30242A" stroke-width="4" stroke-miterlimit="10" stroke-linecap="round"/>
<path d="M454.244 272.221C455.197 270.429 450.146 265.165 442.963 260.463C435.779 255.761 429.183 253.402 428.231 255.193C427.278 256.985 432.329 262.249 439.512 266.951C446.695 271.653 453.291 274.012 454.244 272.221Z" fill="#30242A"/>
<path d="M451.455 220.284C452.853 219.4 452.134 215.078 449.849 210.631C447.564 206.184 444.577 203.296 443.179 204.181C441.78 205.066 442.499 209.388 444.784 213.834C447.07 218.281 450.056 221.169 451.455 220.284Z" fill="#30242A"/>
<path d="M426.853 239.137C427.605 237.281 431.142 237.145 435.442 238.567C432.792 233.308 431.981 228.417 433.733 227.156C435.485 225.895 439.189 228.685 442.438 233.525C443.011 228.589 444.561 225.072 446.413 225.05C448.752 225.05 450.666 230.772 450.69 237.85C450.704 239.874 450.542 241.895 450.206 243.885C449.186 243.366 448.066 243.139 446.947 243.224C445.828 243.308 444.746 243.701 443.798 244.367C442.851 245.034 442.069 245.952 441.523 247.039C440.977 248.126 440.685 249.347 440.673 250.591C438.957 250.125 437.285 249.483 435.677 248.673C429.837 245.774 425.895 241.507 426.853 239.137Z" fill="#4756DF"/>
<path d="M443.723 244.417C444.674 243.732 445.765 243.324 446.895 243.233C448.026 243.141 449.159 243.368 450.189 243.892C449.62 247.181 448.589 249.621 447.35 250.415C446.171 251.367 443.674 251.404 440.656 250.599C440.668 249.368 440.955 248.159 441.49 247.081C442.025 246.002 442.792 245.087 443.723 244.417Z" fill="#30242A"/>
<path d="M458.282 287.907C459.196 282.123 463.956 253.763 471.575 237.718" stroke="#30242A" stroke-width="4" stroke-miterlimit="10" stroke-linecap="round"/>
<path d="M497.29 277.021C497.838 275.144 490.52 270.833 480.944 267.391C471.369 263.95 463.162 262.681 462.614 264.558C462.066 266.435 469.384 270.746 478.96 274.188C488.535 277.629 496.742 278.898 497.29 277.021Z" fill="#30242A"/>
<path d="M470.141 212.857C471.969 212.673 473.811 216.028 474.801 220.883C477.623 215.738 481.075 212.555 482.927 213.632C484.778 214.709 484.401 219.655 482.191 225.171C486.352 223.308 489.886 223.073 490.804 224.844C491.957 227.101 488.396 231.764 482.854 235.256C481.273 236.261 479.609 237.095 477.885 237.747C477.791 236.509 477.419 235.316 476.804 234.277C476.189 233.238 475.351 232.385 474.364 231.797C473.377 231.208 472.274 230.902 471.153 230.906C470.033 230.91 468.931 231.224 467.948 231.82C467.475 229.931 467.158 227.999 467.004 226.046C466.391 218.997 467.812 213.092 470.141 212.857Z" fill="#4756DF"/>
<path d="M474.271 231.753C475.276 232.336 476.131 233.192 476.758 234.239C477.386 235.287 477.764 236.494 477.859 237.747C474.993 238.809 472.559 239.012 471.34 238.203C470.015 237.53 468.759 235.131 467.911 231.82C468.884 231.227 469.974 230.911 471.084 230.899C472.193 230.888 473.289 231.181 474.271 231.753Z" fill="#30242A"/>
<path d="M489.89 246.501V246.531C488.332 247.243 487.071 248.578 486.356 250.271C485.642 251.964 485.525 253.893 486.029 255.677C486.533 257.461 487.621 258.97 489.079 259.908C490.537 260.846 492.259 261.143 493.904 260.742V260.771C485.176 263.803 477.199 263.068 476.086 259.125C474.973 255.182 481.161 249.533 489.89 246.501Z" fill="#4756DF"/>
<path d="M487.813 258.86C488.578 258.52 489.2 257.871 489.552 257.044C489.905 256.217 489.963 255.273 489.714 254.4C489.466 253.528 488.929 252.792 488.213 252.34C487.496 251.888 486.651 251.753 485.848 251.962C486.068 250.757 486.553 249.631 487.259 248.684C487.965 247.737 488.871 246.997 489.896 246.531L493.911 260.742C492.833 261.006 491.714 260.973 490.65 260.645C489.587 260.316 488.613 259.704 487.813 258.86Z" fill="#FFB7D5"/>
<path d="M489.701 254.413C489.947 255.282 489.889 256.222 489.539 257.046C489.189 257.87 488.573 258.517 487.813 258.86C486.986 257.989 486.372 256.899 486.028 255.692C485.685 254.486 485.623 253.202 485.848 251.962C486.651 251.759 487.493 251.898 488.207 252.352C488.921 252.806 489.454 253.542 489.701 254.413Z" fill="#30242A"/>
<defs>
<clipPath id="clip0_4_4">
<rect width="76" height="51" fill="white" transform="translate(116 137)"/>
</clipPath>
<clipPath id="clip1_4_4">
<rect width="76" height="51" fill="white" transform="translate(608 285)"/>
</clipPath>
<clipPath id="clip2_4_4">
<rect width="77" height="67" fill="white" transform="translate(262 521)"/>
</clipPath>
</defs>
</svg>
