<svg width="1129" height="902" viewBox="0 0 1129 902" fill="none" xmlns="http://www.w3.org/2000/svg">
<path d="M203.67 483.57H179.11V901H203.67V483.57Z" fill="#FFBE21"/>
<path d="M203.68 489.31H179.11" stroke="#A15842" stroke-width="4" stroke-miterlimit="10"/>
<path d="M67.66 817.24C70.1479 810.105 74.794 803.921 80.9543 799.545C87.1145 795.169 94.4837 792.818 102.04 792.818C109.596 792.818 116.966 795.169 123.126 799.545C129.286 803.921 133.932 810.105 136.42 817.24C138.794 810.428 143.139 804.475 148.902 800.136C154.665 795.798 161.587 793.269 168.79 792.87C165.574 787.139 161.745 781.774 157.37 776.87L144.15 762C140.04 757.38 137.452 751.608 136.736 745.466C136.02 739.324 137.212 733.111 140.15 727.67L151.37 706.82C148.22 709.99 130.01 727.04 102.37 727.04C74.73 727.04 56.52 709.99 53.37 706.82H53.32L64.55 727.67C67.4747 733.122 68.6483 739.343 67.9111 745.486C67.1739 751.628 64.5617 757.395 60.43 762L47.22 776.81C42.8369 781.714 38.9978 787.079 35.77 792.81C42.8955 793.306 49.7178 795.887 55.3879 800.231C61.0581 804.574 65.3258 810.489 67.66 817.24Z" fill="#4756DF"/>
<path d="M170.8 838.31C163.242 838.311 155.871 840.665 149.71 845.044C143.55 849.424 138.905 855.612 136.42 862.75C133.937 855.61 129.292 849.421 123.132 845.041C116.971 840.661 109.599 838.307 102.04 838.307C94.4808 838.307 87.1092 840.661 80.9483 845.041C74.7875 849.421 70.1432 855.61 67.66 862.75C64.6531 854.123 58.5145 846.941 50.4612 842.627C42.4078 838.313 33.0276 837.183 24.18 839.46C24.688 862.537 33.9879 884.549 50.18 901H154.37C170.529 884.584 179.827 862.628 180.37 839.6C177.252 838.745 174.033 838.311 170.8 838.31Z" fill="#4756DF"/>
<path d="M102.29 727.08C129.93 727.08 148.14 710.03 151.29 706.86H53.29C56.44 710 74.65 727.08 102.29 727.08Z" fill="#30242A"/>
<path d="M67.66 862.75C70.1432 855.61 74.7875 849.421 80.9483 845.041C87.1092 840.661 94.4809 838.307 102.04 838.307C109.599 838.307 116.971 840.661 123.132 845.041C129.292 849.421 133.937 855.61 136.42 862.75C139.452 854.032 145.683 846.79 153.852 842.492C162.021 838.195 171.518 837.161 180.42 839.6C180.831 823.262 176.82 807.116 168.81 792.87C161.607 793.268 154.685 795.798 148.922 800.136C143.159 804.475 138.814 810.428 136.44 817.24C133.952 810.105 129.306 803.921 123.146 799.545C116.986 795.169 109.616 792.818 102.06 792.818C94.5037 792.818 87.1345 795.169 80.9743 799.545C74.814 803.921 70.1679 810.105 67.68 817.24C65.3314 810.506 61.0574 804.61 55.3884 800.283C49.7194 795.956 42.9048 793.389 35.79 792.9C27.8163 807.098 23.8128 823.181 24.2 839.46C33.0476 837.183 42.4278 838.313 50.4812 842.627C58.5345 846.941 64.6731 854.123 67.68 862.75H67.66Z" fill="#3EC1F3"/>
<path d="M109.55 724.22C111.55 711.98 120.64 663.46 143.5 637.09" stroke="#30242A" stroke-width="4" stroke-miterlimit="10" stroke-linecap="round"/>
<path d="M99 724.57C98.85 710.67 97.42 642.42 83.85 601.7" stroke="#30242A" stroke-width="4" stroke-miterlimit="10" stroke-linecap="round"/>
<path d="M159.146 676.814C179.189 667.995 193.829 657.19 191.845 652.681C189.861 648.172 172.004 651.666 151.961 660.485C131.917 669.305 117.277 680.11 119.261 684.619C121.245 689.128 139.102 685.634 159.146 676.814Z" fill="#30242A"/>
<path d="M159.134 552.749C166.34 543.007 169.428 533.073 166.031 530.56C162.634 528.048 154.039 533.908 146.833 543.65C139.628 553.392 136.54 563.326 139.936 565.838C143.333 568.351 151.928 562.49 159.134 552.749Z" fill="#30242A"/>
<path d="M50.6148 683.74C76.7445 679.788 97.3611 672.844 96.6632 668.23C95.9654 663.615 74.2174 663.078 48.0877 667.03C21.958 670.982 1.34139 677.926 2.03924 682.54C2.73709 687.155 24.4851 687.692 50.6148 683.74Z" fill="#30242A"/>
<path d="M32.36 615.58V615.65C36.2208 617.809 39.1326 621.336 40.5215 625.536C41.9104 629.735 41.6756 634.303 39.8633 638.338C38.0509 642.373 34.7926 645.583 30.7308 647.334C26.669 649.086 22.0983 649.252 17.92 647.8V647.86C39.82 657.7 60.83 658.45 64.83 649.54C68.83 640.63 54.27 625.42 32.36 615.58Z" fill="#FF7235"/>
<path d="M97.11 544.26C92.45 543.05 86.39 550.1 81.96 561.01C76.63 547.76 68.9 538.89 63.69 540.61C58.48 542.33 57.55 554.05 61.16 567.87C51.1 561.75 42.04 559.69 39.01 563.44C35.15 568.22 42.59 580.62 55.63 591.15C59.3399 594.172 63.3316 596.831 67.55 599.09C68.2691 596.234 69.6903 593.602 71.6847 591.435C73.6791 589.267 76.1834 587.633 78.9701 586.679C81.7568 585.725 84.7377 585.483 87.6419 585.974C90.5461 586.465 93.2816 587.673 95.6 589.49C97.5545 585.283 99.1145 580.905 100.26 576.41C104.47 560.2 103.06 545.8 97.11 544.26Z" fill="#FF7235"/>
<path d="M198.77 617.87C197.33 613.27 188.14 611.87 176.54 613.87C184.96 602.34 188.4 591.09 184.19 587.58C179.98 584.07 169.53 589.48 159.71 599.85C159.59 588.07 156.54 579.29 151.76 578.7C145.67 577.95 139.07 590.83 137.03 607.45C136.426 612.202 136.278 617 136.59 621.78C139.396 620.876 142.383 620.688 145.28 621.232C148.176 621.777 150.891 623.037 153.177 624.899C155.462 626.76 157.246 629.163 158.366 631.89C159.487 634.616 159.907 637.579 159.59 640.51C164.196 639.927 168.738 638.923 173.16 637.51C189.13 632.54 200.6 623.73 198.77 617.87Z" fill="#FF7235"/>
<path d="M153.31 625C151.023 623.093 148.291 621.794 145.368 621.226C142.444 620.658 139.425 620.838 136.59 621.75C137.16 629.66 139.16 635.75 142.17 637.96C144.98 640.56 151.48 641.43 159.57 640.48C159.885 637.584 159.479 634.654 158.386 631.953C157.294 629.252 155.55 626.863 153.31 625Z" fill="#30242A"/>
<path d="M79.15 586.62C76.3224 587.553 73.7764 589.185 71.7485 591.365C69.7205 593.545 68.2763 596.202 67.55 599.09C74.55 602.79 80.77 604.29 84.27 602.93C87.96 601.93 92.13 596.86 95.6 589.49C93.308 587.691 90.6062 586.487 87.7359 585.987C84.8655 585.486 81.9158 585.703 79.15 586.62Z" fill="#30242A"/>
<path d="M34.31 645.27C32.4295 644.221 31.0115 642.505 30.3366 640.46C29.6617 638.416 29.7792 636.192 30.6659 634.23C31.5526 632.268 33.1438 630.711 35.1243 629.866C37.1048 629.021 39.3303 628.951 41.36 629.67C41.1252 626.777 40.1812 623.986 38.6115 621.544C37.0418 619.102 34.8947 617.085 32.36 615.67L17.89 647.8C20.6249 648.755 23.5525 649.024 26.4155 648.582C29.2785 648.141 31.9894 647.004 34.31 645.27Z" fill="#F5EBDD"/>
<path d="M30.63 634.24C29.7578 636.202 29.6519 638.419 30.333 640.455C31.0141 642.491 32.4329 644.198 34.31 645.24C36.7135 643.453 38.6221 641.082 39.8555 638.353C41.089 635.624 41.6068 632.625 41.36 629.64C39.3209 628.914 37.0829 628.984 35.0935 629.837C33.1041 630.69 31.5099 632.262 30.63 634.24Z" fill="#4856DF"/>
<path d="M691.49 650.38H437.16L441.46 633.32H553.1L595.68 466.8C601.481 444.118 614.667 424.012 633.16 409.653C651.652 395.295 674.398 387.501 697.81 387.5C755.1 387.5 797.02 441.5 782.81 497L756.5 599.89C752.807 614.329 744.414 627.128 732.643 636.27C720.872 645.412 706.394 650.376 691.49 650.38Z" fill="#FFB7D5"/>
<path d="M439.13 807.97V826.03H601.22V807.97H439.13Z" fill="#A15842"/>
<path d="M627.92 891.3L585.76 640.35H454.58L412.42 891.3C412.221 892.494 412.284 893.716 412.606 894.883C412.927 896.05 413.499 897.132 414.282 898.055C415.064 898.979 416.038 899.72 417.136 900.229C418.234 900.737 419.43 901 420.64 901C422.541 900.998 424.385 900.347 425.865 899.154C427.346 897.961 428.374 896.297 428.78 894.44L484 640.35H556.38L611.58 894.44C611.984 896.298 613.012 897.962 614.493 899.156C615.974 900.349 617.818 901 619.72 901C620.928 900.998 622.122 900.732 623.218 900.223C624.313 899.713 625.285 898.971 626.065 898.048C626.845 897.125 627.415 896.043 627.735 894.878C628.056 893.713 628.119 892.492 627.92 891.3Z" fill="#A15842"/>
<path d="M573.41 807.97V826.03H735.5V807.97H573.41Z" fill="#FFBE21"/>
<path d="M762.2 891.3L720 640.35H588.87L546.71 891.3C546.511 892.494 546.574 893.716 546.896 894.883C547.217 896.05 547.789 897.132 548.572 898.055C549.354 898.979 550.328 899.72 551.426 900.229C552.524 900.737 553.72 901 554.93 901C556.831 901 558.674 900.349 560.153 899.155C561.632 897.962 562.658 896.298 563.06 894.44L618.26 640.35H690.65L745.85 894.44C746.254 896.3 747.284 897.965 748.767 899.159C750.25 900.353 752.096 901.002 754 901C755.208 900.998 756.402 900.732 757.497 900.223C758.593 899.713 759.565 898.971 760.345 898.048C761.125 897.125 761.695 896.043 762.015 894.878C762.336 893.713 762.399 892.492 762.2 891.3Z" fill="#FFBE21"/>
<path d="M629.71 599.89L645.79 537H539.22C518.322 537.001 498.018 543.957 481.51 556.773C465.003 569.588 453.231 587.534 448.05 607.78L437.16 650.38H564.69C579.596 650.378 594.076 645.415 605.849 636.273C617.622 627.131 626.017 614.331 629.71 599.89Z" fill="#FFB7D5"/>
<path d="M444.09 631.65H579.39" stroke="#A15842" stroke-width="4" stroke-linecap="round" stroke-linejoin="round"/>
<path d="M553.58 631.02L577.29 538.32" stroke="#A15842" stroke-width="4" stroke-linecap="round" stroke-linejoin="round"/>
<path d="M771 534.85H707" stroke="#A15842" stroke-width="4" stroke-linecap="round" stroke-linejoin="round"/>
<path d="M783 489.85H701" stroke="#A15842" stroke-width="4" stroke-linecap="round" stroke-linejoin="round"/>
<path d="M484.31 469.53C484.31 469.53 404.08 491.38 370 508.43C313.81 536.52 314 555.06 279.74 658.85C248.11 754.77 244.63 801.26 201 803.1C167.69 804.5 156.77 815.4 151.37 830.34L283.18 892.88C284.691 893.595 286.418 893.705 288.007 893.189C289.597 892.672 290.929 891.567 291.73 890.1C292.546 888.601 292.745 886.842 292.284 885.198C291.822 883.554 290.737 882.156 289.26 881.3L286.49 879.7C298.74 864.86 322.37 833.24 345.93 785.21L360.93 792.21C360.93 792.21 385.16 760.72 389 725C394 678.87 391 647.78 412.07 629.73L657.77 469.49L484.31 469.53Z" fill="#FF7235"/>
<path d="M188.05 810.51C190.66 805.08 205.16 772 213.5 776C224.35 781.2 196.19 814.41 196.19 814.41L188.05 810.51Z" fill="#30242A"/>
<path d="M151.36 830.81L283.17 893.34C284.696 894.068 286.445 894.177 288.049 893.644C289.654 893.11 290.989 891.977 291.776 890.48C292.562 888.983 292.739 887.24 292.268 885.616C291.797 883.992 290.715 882.614 289.25 881.77L286.48 880.17L286.76 879.83L196.16 837.06C197.518 833.299 198.47 829.403 199 825.44C212.56 827.79 240 830.32 240.14 819.01C240.29 808.47 210.32 812.7 199.37 815.68C199.134 811.629 198.347 807.629 197.03 803.79C166.82 805.87 156.54 816.47 151.36 830.81Z" fill="#30242A"/>
<path d="M370 508.43C363.69 511.58 358.1 514.61 353.09 517.65L345.4 542.28L375 521.43L402.29 543.19L392.23 513.36L423.14 499.2L399.25 496.2C389.29 499.754 379.526 503.836 370 508.43Z" fill="#FFB7D5"/>
<path d="M457.21 495.61L455.21 508.64L468.25 503.63L457.21 495.61Z" fill="#FFB7D5"/>
<path d="M382 560.79L362.95 585.86L335.87 572.83L351.91 599.9L326.84 620.96L358.93 616.95L369.97 654.06L381 616.95L416.1 606.92L382 592.88V560.79Z" fill="#FFB7D5"/>
<path d="M274.9 752.21L277.24 745.53L309.24 743.83L283.24 726.13L294.82 698.4L268.63 715.86L263.63 710.46C259.63 723.63 256.09 735.36 252.63 745.67H252.79C253.17 744.54 253.55 743.4 253.93 742.24L274.9 752.21Z" fill="#FFB7D5"/>
<path d="M274.9 752.21L253.9 742.28C253.52 743.44 253.14 744.58 252.76 745.71C240.07 783.51 228.51 802.41 201.02 803.57C199.67 803.57 198.37 803.7 197.09 803.79C198.407 807.629 199.194 811.629 199.43 815.68C210.43 812.68 240.35 808.47 240.2 819.01C240.04 830.32 212.62 827.79 199.06 825.44C198.52 829.404 197.558 833.3 196.19 837.06L286.79 879.83C299.11 864.83 322.54 833.37 345.92 785.74L274.9 752.21Z" fill="#EAA58B"/>
<path d="M354.92 676.12L351.92 703.2L323.84 702.2L347.91 720.26L338.91 752.35L363 731.28L384.65 745.72C385.25 743.807 385.8 741.87 386.3 739.91L378 719.24L390.86 705.15C391.07 702.53 391.27 699.95 391.46 697.44L369 701.19L354.92 676.12Z" fill="#FFB7D5"/>
<path d="M292.37 619.83C289.84 627.65 287.12 636.14 284.12 645.37L310.8 647L292.37 619.83Z" fill="#FFB7D5"/>
<path d="M386.58 864.13C387 858.13 388.31 822.03 397.53 822.68C409.53 823.52 395.58 864.76 395.58 864.76L386.58 864.13Z" fill="#30242A"/>
<path d="M608.67 471C608.67 471 508.38 489.6 453.22 512.66C397.53 535.95 398.07 577.31 408.09 689.66C417.09 790.24 433.17 839.08 400.09 854.12C369.75 867.92 359.21 885.22 360.65 901.04H510C510.842 901.04 511.675 900.874 512.453 900.552C513.231 900.23 513.937 899.758 514.533 899.163C515.128 898.567 515.6 897.861 515.922 897.083C516.244 896.305 516.41 895.472 516.41 894.63C516.41 892.93 515.735 891.3 514.533 890.097C513.33 888.895 511.7 888.22 510 888.22H507.48C512.19 872.81 519.02 842.73 519.96 792.95H538.48C538.48 792.95 548 748.95 537.48 709.71C526.48 668.6 516.42 661.58 510.41 633.5H600.28C668.91 633.5 720.28 570.02 705.35 503.04C700.69 482.11 693.93 471.04 693.93 471.04L608.67 471Z" fill="#FF7235"/>
<path d="M546.49 529.7L528.08 552.86L499.41 543.01L516.4 570.82L494.34 600.91L523.42 588.87L539.63 618.75L541.47 585.86L569.55 579.85L545.49 564.8L546.49 529.7Z" fill="#FFB7D5"/>
<path d="M506.43 708.48L523.43 736.29L501.37 766.38L530.45 754.38L541.23 774.25C542.81 758.81 543.59 735.97 538.55 714.04L535.11 718.37L506.43 708.48Z" fill="#FFB7D5"/>
<path d="M431.45 792.91L430.16 777.41L462.72 764.85L431.9 758.46L435.3 724.63L415.3 750.8L414.7 750.55C416.62 766.7 418.3 780.81 419.24 793.02V792.91H431.45Z" fill="#FFB7D5"/>
<path d="M510 888.18H507.48C512.19 872.77 519.02 842.69 519.96 792.91H419.21V793C419.29 794 419.36 795 419.43 796C419.43 796.09 419.43 796.19 419.43 796.28C421.52 827.53 418.11 845.81 400.05 854.02C369.71 867.82 359.17 885.12 360.61 900.94H510C511.7 900.94 513.33 900.265 514.533 899.062C515.735 897.86 516.41 896.23 516.41 894.53C516.41 892.83 515.735 891.199 514.533 889.997C513.33 888.795 511.7 888.12 510 888.12V888.18Z" fill="#EAA58B"/>
<path d="M643.72 473.59L597.65 477.67L602.45 496.19L572.98 511.91L609.69 516.82L622.11 544.33L634.88 515.84L672.22 509.94L639.79 493.24L643.72 473.59Z" fill="#FFB7D5"/>
<path d="M424.14 603.91L435.14 568.81L467.23 573.81L442.16 551.75L460.16 530.69L427.07 542.69L421.78 533.62C413.27 543.26 408.13 555.23 405.38 570.62L411.02 570.8L424.14 603.91Z" fill="#FFB7D5"/>
<path d="M510 493.8C503.23 495.68 496.49 497.65 489.91 499.68L516.42 517.68L510 493.8Z" fill="#FFB7D5"/>
<path d="M466.26 656.06L452.22 626.98L445.2 659.07L419.13 657.07L443.19 678.13L428.15 713.23L454.26 688.89L475.9 713.84L469.27 676.12L491.33 647.04L466.26 656.06Z" fill="#FFB7D5"/>
<path d="M406.73 876.45C419.99 872.79 445.87 863.37 441.19 853.08C436.83 843.48 411.53 860.08 402.9 867.47C400.722 863.473 397.939 859.837 394.65 856.69C368.47 870.02 359.28 886.16 360.65 901H510C511.7 901 513.33 900.325 514.533 899.123C515.735 897.921 516.41 896.29 516.41 894.59C516.41 892.89 515.735 891.26 514.533 890.058C513.33 888.855 511.7 888.18 510 888.18H409.1C408.725 884.198 407.931 880.266 406.73 876.45Z" fill="#30242A"/>
<path d="M510 635.71L484.18 635.35" stroke="#A15842" stroke-width="4" stroke-miterlimit="10" stroke-linecap="round"/>
<path d="M529.2 489.42C502.45 496.24 473.86 504.61 452.2 513.65C406 533 398.51 564.76 403 639.24" stroke="#A15842" stroke-width="4" stroke-miterlimit="10" stroke-linecap="round"/>
<path d="M868.68 483.57H844.12V901H868.68V483.57Z" fill="#FFBE21"/>
<path d="M868.68 489.31H844.12" stroke="#A15842" stroke-width="4" stroke-miterlimit="10"/>
<path d="M512.39 169.68C498.39 167.68 466.32 182.73 465.26 212.48C464.2 242.23 490.76 251.79 495.01 253.92L556.64 244.35L560.89 176.35L512.39 169.68Z" fill="#A15842"/>
<path d="M621.27 95.8C647.724 95.8 669.17 74.3544 669.17 47.9C669.17 21.4456 647.724 0 621.27 0C594.816 0 573.37 21.4456 573.37 47.9C573.37 74.3544 594.816 95.8 621.27 95.8Z" fill="#A15842"/>
<path d="M590.2 80.84C593.12 82.19 568.53 23.84 555.98 32.94C544.17 41.53 575.37 74 590.2 80.84Z" fill="#30242A"/>
<path d="M591.56 84.41C594.24 87.61 656.98 65.66 648.3 53C640 40.82 588.88 81.2 591.56 84.41Z" fill="#30242A"/>
<path d="M674.85 244.89C674.85 244.89 716.97 209.79 689.85 170.68C672.59 145.75 625.66 155.68 625.66 155.68C626.8 141.99 630.52 102.55 600.86 80.88C571.2 59.21 533.57 70.62 519.86 87.72C506.15 104.82 509.6 136.77 505.04 159.58C500.48 182.39 503.52 197.9 517.58 205.2C530.37 211.84 545.42 207.83 545.42 207.83L543.82 231.9C543.82 231.9 514.82 232.99 497.05 239.42C454.23 254.92 379 361.22 379 361.22C331.87 359.22 287.74 357.22 287.74 357.22L310.81 425.42C310.81 425.42 368.97 444.47 411.09 433.42C453.82 422.23 494.33 362.22 494.33 362.22L508.33 402.33L484.26 469.52H693.86L658.76 407.34C664.83 352.2 674.85 244.89 674.85 244.89Z" fill="#EAA58B"/>
<path d="M607.5 229.4L552.5 329.13L530 232.9C520.11 233.9 506.93 235.84 497.15 239.38C454.23 254.92 379 361.22 379 361.22C331.87 359.22 287.74 357.22 287.74 357.22L310.81 425.42C310.81 425.42 368.97 444.47 411.09 433.42C453.82 422.23 494.33 362.22 494.33 362.22L508.33 402.33L484.26 469.52H693.86L658.76 407.35C664.76 352.19 674.76 244.88 674.76 244.88C665.474 239.227 655.307 235.171 644.68 232.88C632.71 230.18 619.55 231.79 607.5 229.4Z" fill="#4756DF"/>
<path d="M322.67 462.51H496.35L456.86 337.79C455.699 334.114 453.397 330.904 450.288 328.626C447.179 326.348 443.425 325.12 439.57 325.12H292.79C289.938 325.118 287.126 325.789 284.582 327.079C282.038 328.368 279.834 330.24 278.149 332.541C276.465 334.843 275.347 337.509 274.887 340.324C274.426 343.138 274.636 346.022 275.5 348.74L308.14 451.88C309.119 454.965 311.055 457.659 313.668 459.57C316.28 461.481 319.433 462.511 322.67 462.51Z" fill="#30242A"/>
<path d="M348.55 381.54C353.16 375.24 374.07 391.88 375.61 393.25C376.41 391.88 387.3 375.25 395.28 381.54C402.21 387 386.98 411.39 382.93 417.61C382.76 417.798 382.553 417.949 382.321 418.052C382.089 418.155 381.839 418.209 381.585 418.209C381.331 418.209 381.081 418.155 380.849 418.052C380.617 417.949 380.41 417.798 380.24 417.61C372.85 411.39 344.55 387 348.55 381.54Z" fill="#A15842"/>
<path d="M373.887 385.758C375.632 385.214 375.699 380.443 374.035 375.102C372.371 369.76 369.608 365.871 367.862 366.414C366.117 366.958 366.051 371.729 367.714 377.07C369.378 382.412 372.142 386.301 373.887 385.758Z" fill="#A15842"/>
<path d="M597.2 448.47C597.703 450.083 597.819 451.792 597.541 453.459C597.262 455.126 596.596 456.704 595.596 458.066C594.595 459.428 593.289 460.537 591.782 461.301C590.275 462.066 588.61 462.467 586.92 462.47H322.67C319.433 462.471 316.28 461.441 313.668 459.53C311.055 457.619 309.119 454.925 308.14 451.84L307.06 448.43L597.2 448.47Z" fill="#30242A"/>
<path d="M911 462.51H136.79V487.58H911V462.51Z" fill="#FFBE21"/>
<path d="M756.49 599.89L772.57 537H678.77C657.873 537.001 637.571 543.958 621.065 556.774C604.559 569.589 592.789 587.535 587.61 607.78L576.71 650.38H691.46C706.367 650.379 720.849 645.416 732.624 636.274C744.398 627.132 752.795 614.332 756.49 599.89Z" fill="#FFB7D5"/>
<path d="M578.93 633.89L575.22 649.57" stroke="#A15842" stroke-width="4" stroke-linecap="round" stroke-linejoin="round"/>
<path d="M279.38 360.83C267.71 366.66 261.88 376.38 261.88 383.19C261.88 393.13 272 395 272 395C272 395 264.45 406.87 277.58 412.44C277.58 412.44 277.58 424.66 289.81 424.66C289.81 424.66 288.19 434.19 300.95 435.09C313.71 435.99 326.84 429.33 327.95 425.02C329.22 419.93 325.79 415.67 316.53 414.32C316.53 414.32 329.03 408.48 327.05 401.11C325.07 393.74 316.62 393.91 316.62 393.91C316.62 393.91 324.71 389.06 320.39 381.91C316.07 374.76 307.81 377.24 307.81 377.24C307.81 377.24 309.97 372.24 306.19 368.43C301.69 363.93 282.34 369.61 282.34 369.61L279.38 360.83Z" fill="#EAA58A"/>
<path d="M289.9 425.13C300.43 422.606 310.647 418.916 320.36 414.13" stroke="#A15842" stroke-width="4" stroke-miterlimit="10" stroke-linecap="round"/>
<path d="M277.55 412.38C292.15 408.377 306.089 402.269 318.93 394.25" stroke="#A15842" stroke-width="4" stroke-miterlimit="10" stroke-linecap="round"/>
<path d="M271 396.42C284.53 392.417 297.312 386.225 308.84 378.09" stroke="#A15842" stroke-width="4" stroke-miterlimit="10" stroke-linecap="round"/>
<path d="M689.9 170.68C672.64 145.75 625.71 155.68 625.71 155.68C626.85 141.99 630.57 102.55 600.91 80.88C571.25 59.21 533.62 70.62 519.91 87.72C514.33 94.72 511.6 104.14 510.01 114.42C519.11 115.95 532.46 112.82 532.46 112.82C550.71 133.35 567.06 136.61 567.06 136.61C579.83 123.84 602.23 124.26 605.87 143.61C609.65 163.7 577.56 172.73 577.56 172.73C577.56 172.73 574.56 208.83 590.56 221.87C595.471 225.762 601.277 228.365 607.45 229.44C619.45 231.83 632.66 230.22 644.72 232.9C655.347 235.191 665.514 239.247 674.8 244.9C678.464 241.672 681.812 238.102 684.8 234.24C695.32 220.9 707.9 196.68 689.9 170.68Z" fill="#A15842"/>
<path d="M551.5 105.5C545.5 110.5 538.5 113.5 530.44 115.5" stroke="#EAA58B" stroke-width="4" stroke-miterlimit="10" stroke-linecap="round"/>
<path d="M545.09 210.08C549.747 208.527 554.238 206.517 558.5 204.08" stroke="#A15842" stroke-width="4" stroke-miterlimit="10" stroke-linecap="round"/>
<path d="M578.79 152.56L587.91 146.86" stroke="#A15842" stroke-width="4" stroke-miterlimit="10" stroke-linecap="round"/>
<path d="M526.46 179.33C528.35 180.5 535.46 181.41 538.28 175.98" stroke="#A15842" stroke-width="4" stroke-miterlimit="10" stroke-linecap="round"/>
<path d="M545.04 153.67C546.929 153.67 548.46 152.139 548.46 150.25C548.46 148.361 546.929 146.83 545.04 146.83C543.151 146.83 541.62 148.361 541.62 150.25C541.62 152.139 543.151 153.67 545.04 153.67Z" fill="#30242A"/>
<path d="M516.69 149.14C518.579 149.14 520.11 147.609 520.11 145.72C520.11 143.831 518.579 142.3 516.69 142.3C514.801 142.3 513.27 143.831 513.27 145.72C513.27 147.609 514.801 149.14 516.69 149.14Z" fill="#30242A"/>
<path d="M526.32 158.93C525.64 161.08 525.05 163.42 525.44 164.2C525.976 165.188 526.789 165.998 527.78 166.53" stroke="#A15842" stroke-width="4" stroke-miterlimit="10" stroke-linecap="round"/>
<path d="M583.08 186.07C589.696 186.07 595.06 180.706 595.06 174.09C595.06 167.474 589.696 162.11 583.08 162.11C576.464 162.11 571.1 167.474 571.1 174.09C571.1 180.706 576.464 186.07 583.08 186.07Z" fill="#F5EBDD"/>
<path d="M525.448 147.643C527.521 136.99 521.427 126.842 511.837 124.976C502.246 123.11 492.792 130.233 490.719 140.886C488.647 151.539 494.741 161.687 504.331 163.553C513.921 165.419 523.376 158.295 525.448 147.643Z" stroke="#30242A" stroke-width="4" stroke-miterlimit="10" stroke-linecap="round"/>
<path d="M568.898 152.971C570.971 142.318 564.877 132.17 555.287 130.304C545.696 128.438 536.242 135.561 534.169 146.214C532.097 156.866 538.191 167.015 547.781 168.88C557.371 170.746 566.826 163.623 568.898 152.971Z" stroke="#30242A" stroke-width="4" stroke-miterlimit="10" stroke-linecap="round"/>
<path d="M526.27 146.03L533.18 146.77" stroke="#30242A" stroke-width="4" stroke-miterlimit="10" stroke-linecap="round"/>
<path d="M628 157L626.01 169.8" stroke="#30242A" stroke-width="4" stroke-miterlimit="10" stroke-linecap="round"/>
<path d="M483.31 336.15L492.99 364.32" stroke="#30242A" stroke-width="4" stroke-linecap="round" stroke-linejoin="round"/>
<path d="M534.45 400.33H509" stroke="#30242A" stroke-width="4" stroke-linecap="round" stroke-linejoin="round"/>
<path d="M554.51 328.13L562.53 367.24V403.34" stroke="#30242A" stroke-width="4" stroke-linecap="round" stroke-linejoin="round"/>
<path d="M501.17 238.51L516.4 272.97L498.35 270.97L562.53 367.24" stroke="#30242A" stroke-width="4" stroke-linecap="round" stroke-linejoin="round"/>
<path d="M649.56 234.41L623.71 270.97L647.78 268.96L559.52 347.18" stroke="#30242A" stroke-width="4" stroke-linecap="round" stroke-linejoin="round"/>
<path d="M663 357L643.77 330.14" stroke="#30242A" stroke-width="4" stroke-linecap="round" stroke-linejoin="round"/>
<path d="M685.25 456C674.78 452.51 655.99 445.77 644.66 439" stroke="#30242A" stroke-width="4" stroke-linecap="round" stroke-linejoin="round"/>
<path d="M396.45 207.17C407.313 207.17 416.12 198.363 416.12 187.5C416.12 176.637 407.313 167.83 396.45 167.83C385.587 167.83 376.78 176.637 376.78 187.5C376.78 198.363 385.587 207.17 396.45 207.17Z" fill="#FFB7D5"/>
<path d="M337.662 109.22L326.21 95.4112C324.447 93.2857 321.295 92.9916 319.17 94.7544L318.923 94.9587C316.798 96.7215 316.504 99.8736 318.266 101.999L329.719 115.808C331.481 117.934 334.634 118.228 336.759 116.465L337.005 116.261C339.131 114.498 339.425 111.346 337.662 109.22Z" fill="#4756DF"/>
<path d="M358.26 126L346.74 112.1L139.67 283.8C137.864 285.299 136.728 287.453 136.51 289.79C136.292 292.126 137.012 294.454 138.51 296.26L138.74 296.54C139.481 297.434 140.391 298.173 141.418 298.715C142.445 299.257 143.569 299.591 144.725 299.699C145.881 299.807 147.047 299.686 148.156 299.343C149.266 299 150.296 298.441 151.19 297.7L215.93 244V432.43H234V229L358.26 126Z" fill="#3EC1F3"/>
<path d="M324.89 130L330.66 137C332.67 139.429 334.197 142.219 335.16 145.22" stroke="#4756DF" stroke-width="4" stroke-miterlimit="10"/>
<path d="M224.96 248.17C237.977 248.17 248.53 237.617 248.53 224.6C248.53 211.583 237.977 201.03 224.96 201.03C211.943 201.03 201.39 211.583 201.39 224.6C201.39 237.617 211.943 248.17 224.96 248.17Z" fill="#4756DF"/>
<path d="M224.96 233.66C229.964 233.66 234.02 229.604 234.02 224.6C234.02 219.596 229.964 215.54 224.96 215.54C219.956 215.54 215.9 219.596 215.9 224.6C215.9 229.604 219.956 233.66 224.96 233.66Z" fill="#3EC1F3"/>
<path d="M412.6 176.33L382.45 201.25" stroke="#A15842" stroke-width="4" stroke-miterlimit="10"/>
<path d="M373.54 123.48C367.2 122.735 361.391 119.576 357.32 114.66L349.32 104.99C346.492 101.586 342.429 99.4432 338.023 99.0325C333.617 98.6219 329.228 99.977 325.82 102.8C324.134 104.198 322.739 105.915 321.716 107.853C320.694 109.79 320.063 111.91 319.859 114.091C319.656 116.273 319.884 118.473 320.531 120.566C321.178 122.659 322.231 124.604 323.63 126.29L331.63 135.99C335.683 140.892 337.699 147.164 337.26 153.51L335.26 182.75C334.269 197.057 337.901 211.304 345.62 223.39L348.18 227.39L444.11 147.82L440.67 144.59C430.229 134.767 416.907 128.558 402.67 126.88L373.54 123.48Z" fill="#3EC1F3"/>
<path d="M234 432.43H215.93L189.22 439.71C184.219 441.075 179.805 444.046 176.659 448.166C173.513 452.286 171.809 457.326 171.81 462.51H278.11C278.11 457.325 276.405 452.284 273.257 448.163C270.109 444.043 265.693 441.073 260.69 439.71L234 432.43Z" fill="#3EC1F3"/>
<path d="M425.91 133.67L338.12 206.23" stroke="#4756DF" stroke-width="4" stroke-miterlimit="10" stroke-linecap="round"/>
<path d="M215.49 430.36H234" stroke="#4756DF" stroke-width="4" stroke-miterlimit="10" stroke-linecap="round"/>
<path d="M175.32 450.01H274" stroke="#4756DF" stroke-width="4" stroke-miterlimit="10" stroke-linecap="round"/>
<path d="M744.06 720.49C746.06 703.49 745.06 665.33 723 636.25C700.94 607.17 731 619.25 740 627.25C754.4 640.05 767.08 652.32 778.11 693.44L744.06 720.49Z" fill="#30242A"/>
<path d="M1010.43 901H1128.16V897.15C1128.16 891.723 1126 886.519 1122.16 882.682C1118.32 878.845 1113.12 876.69 1107.69 876.69H1009.82L1010.43 901Z" fill="#A15842"/>
<path d="M723.24 788.6L748.07 901H794.21V894C794.21 889.487 792.421 885.158 789.234 881.961C786.047 878.765 781.723 876.963 777.21 876.95C777.21 876.95 800.27 859.66 814.31 842.61C814.31 842.61 838.38 871.94 872.48 866.92L874.95 878.92C876.235 885.148 879.626 890.744 884.552 894.765C889.479 898.787 895.64 900.989 902 901H1013.83C1063.43 901 1087.83 893.43 1089.23 865.19C1089.27 864.113 1089.1 863.038 1088.72 862.03C1088.33 861.022 1087.75 860.102 1087 859.325C1086.26 858.548 1085.36 857.93 1084.37 857.508C1083.38 857.086 1082.31 856.869 1081.23 856.87H1050.01C1048.72 856.871 1047.45 856.583 1046.29 856.028C1045.13 855.472 1044.11 854.663 1043.3 853.66L1030.01 837.17C1026.07 832.29 1020.81 828.644 1014.86 826.664C1008.91 824.684 1002.52 824.453 996.44 826L969.71 832.83C969.71 832.83 922.35 764.77 879.45 717.5C838.45 672.37 761.33 667.5 730.95 726.28C721.183 745.516 718.455 767.564 723.24 788.6Z" fill="#A15842"/>
<path d="M1002.8 901V897.15C1002.8 894.462 1002.27 891.801 1001.24 889.318C1000.21 886.835 998.705 884.579 996.804 882.679C994.903 880.779 992.646 879.272 990.163 878.245C987.679 877.217 985.018 876.689 982.33 876.69H968.7" stroke="#30242A" stroke-width="4" stroke-miterlimit="10"/>
<path d="M816.17 843.41C823.17 835.08 847.06 804.41 845.35 774.41C843.52 742.31 824.29 725.27 824.29 725.27" stroke="#30242A" stroke-width="4" stroke-miterlimit="10" stroke-linecap="round"/>
<path d="M866.41 824.54C866.41 824.54 867.69 848.27 870.26 865.99" stroke="#30242A" stroke-width="4" stroke-miterlimit="10" stroke-linecap="round"/>
<path d="M770.14 890.73V900" stroke="#30242A" stroke-width="4" stroke-miterlimit="10" stroke-linecap="round"/>
<path d="M781.17 890.73V900" stroke="#30242A" stroke-width="4" stroke-miterlimit="10" stroke-linecap="round"/>
<path d="M980.74 890.73V900" stroke="#30242A" stroke-width="4" stroke-miterlimit="10" stroke-linecap="round"/>
<path d="M991.77 890.73V900" stroke="#30242A" stroke-width="4" stroke-miterlimit="10" stroke-linecap="round"/>
<path d="M1021.35 863.65C1023.84 863.65 1025.86 861.631 1025.86 859.14C1025.86 856.649 1023.84 854.63 1021.35 854.63C1018.86 854.63 1016.84 856.649 1016.84 859.14C1016.84 861.631 1018.86 863.65 1021.35 863.65Z" fill="#30242A"/>
<path d="M996.74 825.91V825.79L969.67 832.79L996.4 825.96L996.74 825.91Z" fill="#30242A"/>
<path d="M930.12 877.14C922.28 881.14 911.2 888.97 912.12 900.83H955.66L964.81 886.4C966.306 884.04 968.373 882.096 970.82 880.748C973.268 879.4 976.016 878.692 978.81 878.69H981.72L996.64 826.21L996.42 825.98L969.69 832.81L944.1 865.59C940.333 870.409 935.563 874.35 930.12 877.14Z" fill="#30242A"/>
<path d="M866.53 742C866.53 742 854.42 783.92 893.53 799.75C913.36 807.75 929.83 801.68 941.26 793.75C923.99 770.75 901.14 741.47 879.44 717.55C873.999 711.563 867.885 706.225 861.22 701.64C855.3 709.7 848.82 729.64 866.53 742Z" fill="#EAA58B"/>
<path d="M766.63 772.4C775.77 772.4 783.18 764.99 783.18 755.85C783.18 746.71 775.77 739.3 766.63 739.3C757.49 739.3 750.08 746.71 750.08 755.85C750.08 764.99 757.49 772.4 766.63 772.4Z" fill="#EAA58B"/>
<path d="M1081.27 856.87H1075.27C1074.94 858.543 1074.98 860.269 1075.4 861.923C1075.81 863.577 1076.59 865.119 1077.67 866.438C1078.75 867.757 1080.11 868.82 1081.65 869.552C1083.19 870.284 1084.87 870.665 1086.58 870.67C1087.28 870.67 1087.99 870.603 1088.68 870.47C1088.99 868.724 1089.18 866.96 1089.27 865.19C1089.31 864.113 1089.14 863.038 1088.76 862.03C1088.37 861.022 1087.79 860.102 1087.04 859.325C1086.3 858.548 1085.4 857.93 1084.41 857.508C1083.42 857.086 1082.35 856.869 1081.27 856.87Z" fill="#30242A"/>
<path d="M1105.09 890.73V899.77" stroke="#30242A" stroke-width="4" stroke-miterlimit="10" stroke-linecap="round"/>
<path d="M1116.12 890.73V899.77" stroke="#30242A" stroke-width="4" stroke-miterlimit="10" stroke-linecap="round"/>
<path d="M1044.57 899.8C1069.09 897.33 1083.71 890.69 1089.02 876.56" stroke="#30242A" stroke-width="4" stroke-linecap="round" stroke-linejoin="round"/>
<path d="M644.77 373.67C632.43 372.565 620.022 372.428 607.66 373.26C589.98 374.71 566.21 379.34 556.66 383.96C547.11 388.58 510.54 404.89 520.39 410.36C529.39 415.36 548.27 407.84 548.27 407.84C548.27 407.84 529.43 425.16 526.19 432.41C522.95 439.66 533.66 443.73 533.66 443.73C536.48 456.11 549.1 450.79 549.1 450.79C557.05 467.7 600 431.06 600 431.06C610.218 432.122 620.537 431.687 630.63 429.77C630.63 429.77 636.07 432.82 644.8 437.06L644.77 373.67Z" fill="#EAA58A"/>
<path d="M752.07 458.5C832.3 420.39 716 278 674.85 244.89L651.79 338.16L680.87 378.27C668.13 376.07 655.95 374.56 644.77 373.67V437.06C670.23 449.44 723.73 472 752.07 458.5Z" fill="#4756DF"/>
<path d="M544.43 408.89C551.55 403 563.37 393.48 572.19 387.74" stroke="#A15842" stroke-width="4" stroke-miterlimit="10" stroke-linecap="round"/>
<path d="M581.91 401.81C561.42 415.08 542.75 432.81 533.51 442.09" stroke="#A15842" stroke-width="4" stroke-miterlimit="10" stroke-linecap="round"/>
<path d="M591 416.82C577 426.43 560.75 441 550.14 451" stroke="#A15842" stroke-width="4" stroke-miterlimit="10" stroke-linecap="round"/>
<path d="M831.7 411.43C833.216 411.433 834.67 412.036 835.742 413.108C836.814 414.18 837.417 415.634 837.42 417.15V418C837.417 419.516 836.814 420.97 835.742 422.042C834.67 423.114 833.216 423.717 831.7 423.72H802.23V411.43H831.7ZM831.7 403.43H795.31C795.167 403.43 795.026 403.458 794.894 403.513C794.763 403.568 794.643 403.649 794.543 403.75C794.442 403.851 794.363 403.971 794.309 404.104C794.256 404.236 794.229 404.377 794.23 404.52V430.67C794.23 430.956 794.344 431.231 794.546 431.434C794.749 431.636 795.024 431.75 795.31 431.75H831.7C833.504 431.75 835.291 431.394 836.957 430.703C838.624 430.011 840.138 428.998 841.412 427.721C842.687 426.444 843.697 424.928 844.384 423.26C845.072 421.592 845.424 419.804 845.42 418V417.12C845.42 413.481 843.975 409.992 841.402 407.419C838.829 404.846 835.339 403.4 831.7 403.4V403.43Z" fill="#3EC1F3"/>
<path d="M787.7 399.12C757.9 399.12 744.13 375.37 744.13 375.37L764.13 462.51H811.21L831.21 375.37C826.565 382.692 820.135 388.713 812.524 392.868C804.913 397.022 796.371 399.174 787.7 399.12Z" fill="#3EC1F3"/>
<path d="M787.7 399.12C796.381 399.184 804.936 397.037 812.558 392.882C820.18 388.727 826.62 382.701 831.27 375.37H744.13C744.13 375.37 757.9 399.12 787.7 399.12Z" fill="#30242A"/>
</svg>
